<svg width="464" height="264" viewBox="0 0 464 264" fill="none" xmlns="http://www.w3.org/2000/svg">
<path d="M200.239 238.308C184.914 214.052 187.237 185.761 205.958 163.025C225.47 139.328 247.187 117.772 268.24 95.5696C273.142 90.4005 277.572 84.858 281.08 78.5963C291.482 60.0322 286.35 36.6781 269.32 24.9849C251.392 12.6751 228.986 16.3744 215.603 33.5996C204.32 48.1216 203.158 63.6426 210.467 80.2088C214.971 90.4168 221.845 98.9512 228.896 107.363C230.985 109.854 232.976 112.434 234.927 115.039C235.672 116.033 235.925 117.267 235.017 118.339C234.186 119.32 233.037 119.133 232.243 118.437C215.842 104.07 199.238 89.6456 194.979 66.4155C189.546 36.78 208.466 8.33663 237.621 1.37341C267.224 -5.69659 298.886 15.3438 305.153 45.7742C309.687 67.7892 303.531 86.4919 289.519 102.988C273.222 122.173 255.639 140.125 238.194 158.206C230.082 166.614 222.104 175.133 216.053 185.318C200.666 211.222 217.074 240.748 242.508 245.795C273.959 252.036 297.627 218.143 289.088 191.603C284.859 178.457 277.061 167.83 268.431 157.605C266.235 155.004 264.023 152.412 261.954 149.708C261.089 148.577 260.038 147.087 261.55 145.752C262.749 144.693 264.13 145.384 265.133 146.291C279.61 159.376 294.276 172.25 300.395 192.127C310.302 224.309 286.312 260.96 253.366 263.669C231.106 265.499 213.437 257.136 200.239 238.308Z" fill="white"/>
<path d="M0.015912 115.414C0.0202881 110.782 0.0532337 106.597 0.0179141 102.413C-0.000165177 100.271 0.312307 98.4962 2.94717 98.3872C5.49052 98.2819 7.73111 98.6992 8.2096 101.793C8.4784 103.531 8.50739 105.308 8.71806 108.013C16.0522 101.589 23.562 97.2093 33.0366 97.4226C42.8093 97.6425 50.4234 101.024 54.4351 110.865C54.9602 110.559 55.4106 110.443 55.63 110.148C64.6851 97.9717 81.2545 93.8009 94.9355 100.298C102.832 104.048 107.282 110.495 107.511 119.269C107.872 133.157 107.544 147.063 107.696 160.959C107.741 165.099 105.315 164.914 102.522 164.991C99.191 165.083 98.9377 163.328 98.8881 160.463C98.6451 146.445 99.6597 132.385 98.2203 118.414C97.3309 109.782 91.411 104.538 82.9384 103.944C78.8532 103.658 74.7661 103.578 70.7986 105.035C62.9035 107.934 58.4798 114.054 58.414 122.682C58.3183 135.235 58.2913 147.789 58.3952 160.341C58.4241 163.836 57.1308 165.052 53.734 165.049C50.3668 165.047 49.0472 163.926 49.0837 160.379C49.2131 147.828 49.1865 135.273 49.0739 122.721C49.0248 117.254 48.2143 111.889 43.8644 108.013C37.9294 102.725 30.9541 103.072 23.9458 104.771C19.4464 105.862 15.8193 108.731 12.3682 111.805C10.1258 113.803 9.13817 116.1 9.17003 119.236C9.30663 132.685 9.11703 146.136 9.28216 159.584C9.33114 163.573 8.21164 165.25 4.05196 165.076C0.542827 164.93 -0.0115385 163.204 0.000179355 160.246C0.0587873 145.452 0.0204619 130.657 0.015912 115.414Z" fill="white"/>
<path d="M381.092 161.259C365.837 167.039 350.861 168.531 336.243 160.625C325.659 154.901 320.351 145.551 320.228 133.274C320.007 111.009 332.952 97.7797 354.979 97.4368C364.127 97.2944 372.681 98.7506 380.227 104.543C386.542 109.39 389.388 115.981 390.12 123.723C390.603 128.841 389.679 129.852 384.667 129.861C368.147 129.889 351.627 129.86 335.107 129.852C328.301 129.848 328.038 130.172 329.384 136.95C332.138 150.823 340.709 158.417 354.535 159.345C363.618 159.954 372.31 158.639 380.457 154.283C381.483 153.735 382.585 153.22 383.71 153.008C385.459 152.678 386.915 153.494 387.759 155.045C388.787 156.933 387.157 157.771 386.01 158.552C384.559 159.541 382.944 160.276 381.092 161.259ZM350.516 104.104C337.53 107.279 329.55 115.217 330.173 124.492C330.694 124.6 331.252 124.815 331.809 124.815C347.43 124.811 363.051 124.75 378.671 124.791C382.143 124.8 382.108 122.624 381.519 120.299C379.752 113.335 375.514 108.555 369.007 105.734C363.245 103.236 357.269 103.835 350.516 104.104Z" fill="white"/>
<path d="M397.683 134.244C397.685 123.783 397.682 113.771 397.692 103.758C397.694 101.19 397.41 98.5063 401.184 98.3481C404.484 98.2098 406.044 99.6216 406.211 103.006C406.281 104.434 406.348 105.994 407.303 107.255C408.717 107.604 409.457 106.486 410.343 105.801C419.604 98.6525 430.124 96.374 441.435 97.7343C455.723 99.4527 463.226 107.681 463.59 122.395C463.904 135.089 463.584 147.799 463.685 160.501C463.713 164.082 462.197 165.089 458.886 165.056C455.633 165.023 454.528 163.771 454.554 160.531C454.653 147.979 454.611 135.425 454.568 122.872C454.529 111.139 447.892 104.458 436.417 103.786C426.515 103.205 418.067 106.422 410.391 112.51C408.024 114.388 406.828 116.483 406.862 119.701C407.001 132.85 406.854 146.002 406.915 159.153C406.93 162.565 406.976 165.193 402.233 165.116C397.431 165.037 397.662 162.187 397.678 158.903C397.717 150.833 397.687 142.763 397.683 134.244Z" fill="white"/>
<path d="M146.825 165.821C140.459 165.928 134.767 164.899 129.588 161.731C123.203 157.824 119.579 151.937 119.408 144.46C119.088 130.432 119.358 116.39 119.234 102.355C119.205 99.0558 120.743 98.3146 123.536 98.3137C126.326 98.3128 127.875 99.0406 127.843 102.348C127.726 114.591 127.737 126.837 127.829 139.081C127.906 149.454 131.748 156.112 139.768 158.245C152.405 161.607 163.734 158.473 173.539 149.61C175.405 147.923 175.566 145.811 175.561 143.511C175.533 130.221 175.65 116.93 175.492 103.642C175.447 99.908 176.409 98.2067 180.379 98.2387C184.371 98.2709 184.815 100.377 184.801 103.658C184.72 122.323 184.769 140.988 184.752 159.653C184.749 162.168 185.172 164.865 181.277 164.999C177.507 165.129 176.406 163.171 176.395 159.795C176.391 158.485 176.405 157.076 174.959 155.728C166.735 161.687 157.831 166.283 146.825 165.821Z" fill="white"/>
</svg>
