<svg width="751" height="751" viewBox="0 0 751 751" fill="none" xmlns="http://www.w3.org/2000/svg">
<path d="M372.75 22.125C373.856 22.1169 374.963 22.1089 376.103 22.1006C416.33 21.879 455.813 29.1547 494 41.5C494.941 41.8027 495.882 42.1055 496.852 42.4175C548.692 59.2782 593.979 87.6416 633 125.5C633.663 126.141 634.327 126.783 635.01 127.444C642.046 134.274 648.835 141.135 654.91 148.852C657.121 151.653 659.429 154.352 661.75 157.062C705.902 210.059 729.959 276.382 737 344.5C737.096 345.39 737.191 346.28 737.29 347.196C738.148 356.085 738.157 364.956 738.125 373.875C738.122 375.067 738.122 375.067 738.119 376.284C738.005 417.616 732.897 458.096 720 497.5C719.722 498.36 719.444 499.221 719.157 500.107C715.15 512.385 710.349 524.271 705.088 536.062C704.401 537.601 703.719 539.143 703.045 540.688C682.659 587.338 647.457 633.448 607 664.5C605.877 665.419 604.758 666.343 603.641 667.27C594.206 675.055 584.316 681.936 574 688.5C573.377 688.898 572.754 689.296 572.112 689.706C553.724 701.344 533.986 710.953 514 719.5C513.159 719.866 512.318 720.231 511.452 720.608C500.277 725.398 488.461 729.802 476.336 725.57C471.788 723.04 470.092 720.283 468 715.5C467.624 712.573 467.624 712.573 467.621 709.457C467.613 708.269 467.605 707.081 467.597 705.856C467.603 704.566 467.609 703.275 467.615 701.946C467.611 700.562 467.606 699.178 467.599 697.794C467.587 694.82 467.585 691.846 467.589 688.872C467.596 684.154 467.58 679.436 467.561 674.718C467.523 664.687 467.51 654.656 467.5 644.625C467.489 633.828 467.473 623.03 467.429 612.233C467.411 607.559 467.407 602.886 467.414 598.212C467.416 595.28 467.405 592.348 467.391 589.415C467.385 587.443 467.394 585.471 467.403 583.499C467.252 561.06 461.675 537.545 445.687 521.125C444.852 520.321 444.852 520.321 444 519.5C446.264 518.368 447.661 518.323 450.18 518.211C463.144 517.474 475.71 515.667 488.437 513.187C489.184 513.045 489.93 512.902 490.698 512.755C527.202 505.726 563.147 492.429 585.75 461.25C590.326 454.346 593.818 447.134 597 439.5C597.677 437.924 597.677 437.924 598.367 436.316C602.898 424.82 604.914 412.631 607 400.5C607.252 399.057 607.252 399.057 607.509 397.586C609.698 384.557 610.3 371.621 610.375 358.437C610.383 357.705 610.391 356.972 610.399 356.217C610.622 329.541 601.651 305.544 584 285.5C582.949 284.446 581.886 283.403 580.812 282.371C580.291 281.857 579.77 281.343 579.234 280.813C577.771 279.394 576.267 278.018 574.762 276.645C573 273.5 573 273.5 573.304 271.318C573.836 269.612 574.414 267.92 575.029 266.241C579.849 252.633 580.893 236.835 580 222.5C579.942 221.357 579.942 221.357 579.883 220.192C579.123 206.422 576.051 193.65 572 180.5C571.649 179.322 571.299 178.144 570.937 176.93C570.254 174.346 570.254 174.346 568 173.5C533.08 171.344 501.056 191.621 473 210.5C468.836 213.276 465.698 212.388 461 211.5C458.621 210.913 456.246 210.307 453.875 209.687C447.194 207.946 440.487 206.574 433.687 205.375C432.813 205.217 431.938 205.058 431.037 204.895C413.254 201.843 395.582 201.059 377.562 201.062C376.405 201.061 375.247 201.06 374.054 201.059C347.573 201.094 322.181 203.71 296.579 210.707C290.964 212.224 286.461 213.406 281.078 210.441C280.475 209.986 279.871 209.531 279.25 209.062C271.868 203.91 263.913 199.768 256 195.5C254.953 194.931 253.906 194.362 252.827 193.775C239.224 186.412 225.971 179.567 211 175.5C210.066 175.227 210.066 175.227 209.114 174.949C206.624 174.42 204.342 174.388 201.797 174.402C200.817 174.406 199.837 174.409 198.828 174.412C197.812 174.42 196.797 174.429 195.75 174.437C194.719 174.442 193.687 174.446 192.625 174.451C190.083 174.463 187.542 174.479 185 174.5C176.162 203.638 172.931 228.42 178.027 258.469C179.297 266.21 179.297 266.21 179.809 270.074C179.916 270.851 180.024 271.628 180.134 272.428C179.959 275.123 179.057 275.988 177.125 277.812C176.477 278.365 175.828 278.918 175.16 279.488C163.686 290.174 155.728 307.57 152 322.5C151.819 323.127 151.639 323.753 151.453 324.399C140.074 363.987 148.94 418.606 167.812 454.625C177.85 472.668 191.84 484.144 210 493.5C210.738 493.882 211.476 494.264 212.236 494.657C229.706 503.585 247.849 509.41 267 513.5C267.642 513.664 268.283 513.827 268.944 513.996C276.959 515.981 285.17 516.472 293.375 517.177C295.372 517.351 297.368 517.535 299.363 517.719C300.542 517.821 301.72 517.924 302.935 518.029C305.744 518.461 307.585 519.051 310 520.5C309.431 521.059 308.863 521.619 308.277 522.195C298.025 532.841 291.866 546.262 289.445 560.84C288.06 568.669 288.06 568.669 285.047 571.031C282.379 572.167 279.829 572.865 277 573.5C275.349 573.922 275.349 573.922 273.664 574.352C263.546 576.829 254.154 577.708 243.75 577.75C242.478 577.771 241.205 577.791 239.894 577.812C220.28 577.893 207.329 569.344 193.629 556.23C187.884 550.212 183.427 543.363 178.808 536.478C174.636 530.303 170.319 524.747 165 519.5C164.382 518.861 163.765 518.221 163.129 517.562C157.572 512.202 151.11 509.338 144 506.5C143.386 506.254 142.773 506.009 142.141 505.756C132.24 501.879 122.597 499.231 112.25 503C110.641 503.742 110.641 503.742 109 504.5C109.733 511.409 115.12 515.976 120 520.5C122.938 522.822 125.95 525.009 128.984 527.203C146.069 540.216 157.191 559.746 165.125 579.375C168.909 588.736 173.4 596.66 181 603.5C181.476 603.968 181.951 604.436 182.441 604.918C192.169 614.036 204.293 617.093 217 619.5C217.763 619.651 218.526 619.802 219.312 619.958C236.717 623.319 255.263 624.367 272.742 620.938C275.794 620.528 278.629 620.457 281.704 620.473C282.695 620.477 283.687 620.481 284.708 620.485C285.464 620.49 286.221 620.495 287 620.5C287.069 632.783 287.123 645.066 287.155 657.349C287.171 663.052 287.192 668.755 287.226 674.459C287.259 679.964 287.277 685.469 287.285 690.973C287.29 693.073 287.301 695.173 287.317 697.272C287.339 700.214 287.342 703.156 287.341 706.098C287.357 707.398 287.357 707.398 287.373 708.725C287.344 714.457 286.446 718.725 282.519 723.18C276.474 727.413 269.706 727.889 262.559 727.001C252.633 725.056 243.221 720.519 234 716.5C232.346 715.786 232.346 715.786 230.658 715.058C196.823 700.335 165.678 680.926 138 656.5C137.268 655.856 136.536 655.212 135.782 654.548C129.293 648.776 123.08 642.763 116.937 636.625C115.544 635.25 115.544 635.25 114.123 633.848C107.975 627.713 102.378 621.316 97 614.5C96.0223 613.285 95.0444 612.07 94.0664 610.855C58.8174 566.453 35.3342 515.677 23 460.5C22.7237 459.281 22.4474 458.063 22.1628 456.807C20.4139 448.91 19.0515 441.01 17.9375 433C17.6837 431.177 17.6837 431.177 17.4248 429.316C4.51421 334.49 27.3079 235.541 85.375 158.937C93.3898 148.495 101.835 138.349 111.309 129.191C112.986 127.514 114.492 125.768 116 123.937C118.651 120.783 121.559 118.153 124.699 115.492C127.353 113.194 129.885 110.785 132.437 108.375C139.839 101.501 147.893 95.508 156 89.5C156.595 89.0527 157.191 88.6054 157.804 88.1445C179.74 71.6849 204.448 58.3826 230 48.5C231.383 47.9629 231.383 47.9629 232.794 47.415C259.789 37.0501 287.466 29.9489 316 25.5C317.148 25.3206 318.296 25.1413 319.478 24.9565C337.175 22.3587 354.897 22.1971 372.75 22.125Z" fill="#FEFEFE"/>
<path d="M282 581.5C282.66 582.16 283.32 582.82 284 583.5C283.938 586.437 283.938 586.437 283 589.5C280.286 591.826 278.48 592.441 274.938 592.875C271.713 592.463 270.359 591.677 268 589.5C268.239 585.911 268.39 584.073 271.062 581.562C275.197 580.067 277.703 580.584 282 581.5Z" fill="#F1F2F4"/>
<path d="M189 563.5C192.48 563.594 193.978 564.483 196.75 566.625C199.403 570.016 199.836 572.241 200 576.5C199 577.5 199 577.5 195.687 577.812C192 577.5 192 577.5 189.625 575.625C186.936 572.109 186.724 569.917 187 565.5C187.66 564.84 188.32 564.18 189 563.5Z" fill="#F5F6F7"/>
<path d="M216.75 580.25C220.59 580.278 222.881 581.161 226 583.5C225.744 585.843 225.407 588.178 225 590.5C222.134 591.933 220.187 591.806 217 591.5C213.625 589.5 213.625 589.5 211 587.5C212.033 580.564 212.033 580.564 216.75 580.25Z" fill="#F3F5F6"/>
<path d="M245.023 585.234C246.187 585.242 246.187 585.242 247.375 585.25C248.146 585.245 248.917 585.24 249.711 585.234C252.199 585.523 253.842 586.259 256 587.5C255.688 590.375 255.688 590.375 255 593.5C251.29 595.973 249.389 595.885 245 595.5C242.562 594.312 242.562 594.312 241 592.5C240.625 589.938 240.625 589.938 241 587.5C243 585.5 243 585.5 245.023 585.234Z" fill="#F6F7F8"/>
<path d="M171 543.5C173.995 543.691 176.251 544.076 178.875 545.562C180.756 548.802 180.238 551.807 180 555.5C179 556.5 179 556.5 176.688 556.75C173.358 556.44 172.211 556.027 170 553.5C169.214 550.714 169.094 548.449 169 545.5C169.66 544.84 170.32 544.18 171 543.5Z" fill="#F3F5F6"/>
<path d="M162 525.5C164.375 527.25 164.375 527.25 166 529.5C165.75 532.25 165.75 532.25 165 534.5C162.812 535.313 162.812 535.313 160 535.5C157.188 533.375 157.188 533.375 155 530.5C154.688 527.688 154.688 527.688 155 525.5C157.766 524.117 159.074 524.595 162 525.5Z" fill="#F2F3F5"/>
<path d="M144.375 511.25C147 511.5 147 511.5 148.875 512.688C150 514.5 150 514.5 149.687 517.188C149.461 517.951 149.234 518.714 149 519.5C143.562 519.863 143.562 519.863 141.062 518.25C140 516.5 140 516.5 140.25 514.375C141.32 511.7 141.433 511.56 144.375 511.25Z" fill="#EFF0F3"/>
</svg>
