<svg width="134" height="125" viewBox="0 0 134 125" fill="none" xmlns="http://www.w3.org/2000/svg">
<path d="M44.6063 111.156C41.1583 111.156 39.4344 109.25 39.4344 105.438C39.4344 103.63 39.8693 102.232 40.7391 101.242C41.6089 100.247 42.8354 99.75 44.4188 99.75C45.1844 99.75 45.851 99.8724 46.4188 100.117C46.9865 100.357 47.4005 100.701 47.6609 101.148L46.5047 102.297C46.2703 101.943 45.9708 101.669 45.6063 101.477C45.2469 101.284 44.8563 101.188 44.4344 101.188C43.4292 101.188 42.6219 101.549 42.0125 102.273C41.4083 102.997 41.1063 104.026 41.1063 105.359C41.1063 108.266 42.3615 109.719 44.8719 109.719C45.6271 109.719 46.3719 109.562 47.1063 109.25L47.4656 110.625C46.5594 110.979 45.6063 111.156 44.6063 111.156ZM56.4594 111.156C55.501 111.156 54.8083 110.896 54.3812 110.375C53.9542 109.854 53.7406 109.021 53.7406 107.875V99.2812H55.3969V107.797C55.3969 108.234 55.4385 108.591 55.5219 108.867C55.6052 109.143 55.7667 109.346 56.0062 109.477C56.251 109.607 56.6104 109.672 57.0844 109.672C57.5167 109.672 58.0687 109.573 58.7406 109.375L58.9281 110.828C58.5062 110.943 58.1 111.026 57.7094 111.078C57.324 111.13 56.9073 111.156 56.4594 111.156ZM51.3031 100.641V99.2812H53.8812V100.641H51.3031ZM66.7188 111V103.188H68.375V111H66.7188ZM63.5625 111V109.641H66.875V111H63.5625ZM68.2188 111V109.641H70.9219V111H68.2188ZM64.0312 104.078V102.719H68.375V104.078H64.0312ZM67.4922 101.406C67.1745 101.406 66.901 101.294 66.6719 101.07C66.4479 100.841 66.3359 100.568 66.3359 100.25C66.3359 99.9271 66.4479 99.6536 66.6719 99.4297C66.901 99.2057 67.1745 99.0938 67.4922 99.0938C67.8151 99.0938 68.0885 99.2057 68.3125 99.4297C68.5365 99.6536 68.6484 99.9271 68.6484 100.25C68.6484 100.568 68.5365 100.841 68.3125 101.07C68.0885 101.294 67.8151 101.406 67.4922 101.406ZM79.5719 111.156C78.1604 111.156 77.0693 110.786 76.2984 110.047C75.5328 109.302 75.15 108.234 75.15 106.844C75.15 105.49 75.512 104.438 76.2359 103.688C76.9651 102.938 78.0042 102.562 79.3531 102.562C80.1604 102.562 80.8505 102.714 81.4234 103.016C82.0016 103.312 82.413 103.734 82.6578 104.281L81.3844 105.242C81.15 104.862 80.8505 104.568 80.4859 104.359C80.1214 104.151 79.7229 104.047 79.2906 104.047C78.5094 104.047 77.9026 104.284 77.4703 104.758C77.038 105.227 76.8219 105.896 76.8219 106.766C76.8219 107.708 77.0745 108.43 77.5797 108.93C78.0901 109.424 78.8167 109.672 79.7594 109.672C80.1448 109.672 80.5302 109.654 80.9156 109.617C81.301 109.581 81.676 109.531 82.0406 109.469L82.2281 110.922C81.801 111.016 81.3583 111.078 80.9 111.109C80.4469 111.141 80.0042 111.156 79.5719 111.156ZM88.2844 107.859V106.375H89.2219C89.9094 106.375 90.4745 106.258 90.9172 106.023C91.3599 105.784 91.7063 105.396 91.9563 104.859C92.2115 104.323 92.399 103.609 92.5188 102.719H94.2375C94.0188 104.443 93.5266 105.732 92.7609 106.586C92.0005 107.435 90.951 107.859 89.6125 107.859H88.2844ZM87.1125 111V99.2812H88.7688V111H87.1125ZM92.7219 111L90.3625 106.969L91.925 106.328L94.7688 111H92.7219Z" fill="#1E1F1F"/>
<path d="M65.5 92V0" stroke="black" stroke-dasharray="2 2"/>
</svg>
