<svg width="1089" height="1739" viewBox="0 0 1089 1739" fill="none" xmlns="http://www.w3.org/2000/svg">
<g clip-path="url(#clip0_376_2)">
<path d="M806 419C807.32 419 808.64 419 810 419C810.738 437.846 809.189 453.968 796.125 468.625C790.648 473.803 784.271 476.789 777.492 479.865C774.713 481.131 771.953 482.432 769.192 483.734C758.59 488.704 747.975 493.354 736.953 497.301C724.829 501.642 713.43 506.603 702.109 512.766C692.494 518 692.494 518 689 518C688.34 516.68 687.68 515.36 687 514C683.656 514.557 680.967 515.352 678 517C678 518.32 678 519.64 678 521C681.465 520.505 681.465 520.505 685 520C683.551 523.69 681.868 524.974 678.438 526.875C677.54 527.391 676.643 527.906 675.719 528.438C674.822 528.953 673.924 529.469 673 530C666.379 534.061 660.715 538.758 655 544C653.733 545.108 652.462 546.212 651.188 547.312C647.687 550.371 644.243 553.488 640.813 556.625C640.064 557.308 640.064 557.308 639.3 558.005C636.92 560.188 634.597 562.405 632.317 564.691C630 567 630 567 627.125 569.312C623.889 571.932 621.334 575.01 618.711 578.23C617 580 617 580 614.914 580.988C612.469 582.281 612.119 583.517 611 586C609.996 587.219 608.95 588.405 607.875 589.562C604.259 593.593 601.116 597.87 597.992 602.289C596.175 604.761 594.244 607.092 592.268 609.437C575.36 630.285 565.124 655.055 557.895 680.582C556.766 684.526 555.532 688.366 554.074 692.199C549.3 705.036 546.319 718.433 543.603 731.83C542.769 735.94 541.913 740.046 541.059 744.152C540.887 744.978 540.716 745.804 540.54 746.654C538.968 754.207 537.326 761.743 535.633 769.269C535.202 771.188 534.774 773.108 534.346 775.028C534.081 776.2 533.816 777.371 533.543 778.578C533.316 779.583 533.09 780.587 532.856 781.622C530.886 789.397 528.396 796.911 525.488 804.383C525.156 805.241 524.825 806.099 524.483 806.983C523.783 808.787 523.081 810.59 522.377 812.393C521.325 815.094 520.284 817.801 519.244 820.508C515.525 830.104 511.487 839.368 506.77 848.515C504.447 853.089 502.45 857.759 500.5 862.5C495.457 874.495 489.806 886.084 483.324 897.375C481.59 900.814 480.309 904.385 479 908C477.676 911.566 476.339 915.127 475 918.688C474.657 919.611 474.314 920.535 473.961 921.486C472.279 925.945 470.52 929.941 468 934C467.331 935.789 466.732 937.606 466.188 939.438C465.855 940.555 465.522 941.673 465.18 942.824C463.382 949.11 461.693 955.428 460.018 961.748C459.771 962.671 459.524 963.595 459.27 964.547C459.049 965.381 458.828 966.214 458.601 967.073C458 969 458 969 457 970C456.779 974.377 456.814 978.761 456.815 983.143C456.813 985.331 456.795 987.519 456.776 989.707C456.745 997.652 457.162 1005.23 459 1013C460.32 1013.33 461.64 1013.66 463 1014C463.06 1012.44 463.06 1012.44 463.12 1010.86C463.275 1006.93 463.452 1003 463.635 999.071C463.71 997.386 463.78 995.701 463.844 994.015C464.283 982.521 465.709 972.029 469 961C469.422 959.577 469.422 959.577 469.853 958.125C470.613 955.673 471.417 953.242 472.25 950.812C472.543 949.948 472.836 949.084 473.138 948.193C475.393 941.615 477.754 935.076 480.188 928.562C480.508 927.693 480.829 926.823 481.159 925.927C482.983 921.136 485.138 917.273 488 913C489.922 909.133 491.677 905.193 493.438 901.25C496.461 894.523 499.541 887.855 502.872 881.274C504.494 878.003 505.944 874.67 507.375 871.312C509.722 865.871 512.156 860.483 514.688 855.125C519.203 845.474 522.64 836.243 525.075 825.862C526.368 820.583 528.187 816.646 531 812C532.247 809.43 533.377 806.814 534.5 804.188C534.805 803.482 535.11 802.777 535.424 802.051C537.711 796.737 539.889 791.386 542 786C543.26 782.845 544.52 779.691 545.789 776.54C546.912 773.748 548.017 770.954 549.063 768.133C550.98 763.004 553.352 758.884 556.492 754.41C558.76 750.785 560.227 746.911 561.797 742.945C562.856 740.354 564.017 737.916 565.313 735.438C569.017 728.216 571.987 720.654 575.098 713.164C577.27 707.954 579.536 702.791 581.854 697.645C584.607 691.526 587.269 685.435 589.563 679.125C591.567 673.759 594.138 669.006 597.156 664.145C598.687 661.534 599.995 658.952 601.297 656.227C603.927 650.907 607.172 646.281 610.75 641.562C611.368 640.738 611.987 639.913 612.624 639.063C614.405 636.7 616.199 634.348 618 632C618.683 631.106 618.683 631.106 619.38 630.193C627.749 619.312 637.76 611.285 649 603.562C652.991 600.796 656.605 597.797 660.207 594.547C662 593 662 593 664.938 591.062C667.589 589.277 669.632 587.5 671.938 585.316C677.182 580.616 682.927 577.282 689.063 573.875C695.383 570.332 701.468 566.823 707.187 562.362C710.056 560.206 713.139 558.466 716.25 556.688C721.193 553.804 725.79 550.758 730.313 547.25C735.342 543.391 740.255 540.626 746 538C747.418 537.306 748.835 536.609 750.25 535.91C758.786 531.727 767.272 528.049 776.285 525.025C780.722 523.517 784.605 521.736 788.609 519.336C797.768 514.218 807.922 510.57 817.625 506.625C818.466 506.279 819.307 505.933 820.173 505.577C830.457 501.447 830.457 501.447 835.082 502.453C836.759 503.225 838.382 504.112 840 505C840.33 505.99 840.66 506.98 841 508C850.289 513.986 862.411 513.054 873 513C873 513.33 873 513.66 873 514C895.613 517.925 917.56 509.293 936 497C938.188 497.375 938.188 497.375 940 498C941.695 512.01 940.479 522.135 932 534C930.391 535.886 928.744 537.741 927.063 539.562C926.229 540.471 925.395 541.38 924.535 542.316C920.143 546.966 915.945 550.911 910.625 554.5C907.163 556.839 903.733 559.179 900.438 561.75C896.613 564.53 892.252 566.092 887.867 567.789C884.952 568.936 884.952 568.936 882.277 570.668C880 572 880 572 877.688 571.688C876.852 571.347 876.852 571.347 876 571C876 570.34 876 569.68 876 569C875.216 568.752 874.433 568.505 873.625 568.25C869.809 566.934 866.097 565.442 862.367 563.902C853.896 560.673 843.745 560.841 835.211 563.852C826.875 568.181 823.147 577.638 820 586C818.793 590.184 817.987 594.229 818.02 598.594C817.991 602.455 817.935 604.988 815.242 607.902C809.847 611.829 803.8 614.742 797.889 617.811C783.004 625.627 769.493 636.034 756.796 646.978C753.377 649.904 749.871 652.593 746.188 655.188C741.262 658.687 737.129 662.606 733 667C730.49 669.57 728.093 671.928 725.25 674.125C700.233 694.866 689.638 731.897 680.731 761.673C680.5 762.446 680.268 763.219 680.029 764.016C679.592 765.478 679.157 766.941 678.725 768.405C677.892 771.196 677.028 773.93 675.938 776.632C674.894 779.268 674.253 781.848 673.633 784.613C673.389 785.688 673.145 786.763 672.894 787.87C672.64 789.006 672.387 790.142 672.125 791.312C670.462 798.68 668.765 806.016 666.813 813.312C660.969 836.443 661.013 858.819 665.82 882.16C667.416 890.146 667.416 890.146 666.008 893.039C664.625 894.688 664.625 894.688 662 897C662 897.66 662 898.32 662 899C663.98 899.99 665.96 900.98 668 902C668.33 901.01 668.66 900.02 669 899C671.328 897.133 671.328 897.133 674.25 895.125C678.218 892.315 681.686 889.576 685 886C686.496 884.496 687.996 882.996 689.5 881.5C690.232 880.768 690.964 880.036 691.719 879.281C693.225 877.775 694.733 876.27 696.242 874.766C698.518 872.483 700.78 870.19 703.039 867.891C711.044 859.773 718.978 851.986 728 845C731.006 842.491 733.96 839.924 736.887 837.324C740.358 834.248 743.867 831.305 747.563 828.5C751.095 825.797 754.164 822.892 757.242 819.691C759.116 817.888 761.08 816.396 763.188 814.875C766.396 812.55 768.554 810.134 771 807C772.254 805.876 773.527 804.774 774.813 803.688C777.633 801.285 780.109 798.829 782.5 796C785.39 792.594 788.498 789.734 791.895 786.844C797.162 782.231 802.027 777.204 806.563 771.875C809.396 768.574 812.449 765.794 815.758 762.98C818.475 760.58 821.06 758.06 823.625 755.5C824.102 755.025 824.58 754.55 825.071 754.061C827.583 751.53 829.887 748.947 832.063 746.125C835.458 741.968 840.157 740.077 845 738C847.179 740.178 847.491 741.232 848.313 744.125C849.588 748.116 851.244 751.295 853.551 754.773C855.286 757.438 856.856 760.179 858.438 762.938C860.929 767.229 863.53 771.39 866.313 775.496C868.532 778.789 870.71 782.108 872.875 785.438C873.281 786.054 873.687 786.67 874.105 787.304C877 791.77 877 791.77 877 794C877.593 794.224 878.186 794.449 878.797 794.68C881.645 796.387 882.628 798.25 884.25 801.125C884.771 802.035 885.292 802.945 885.828 803.883C886.408 804.931 886.408 804.931 887 806C886.432 806.617 885.863 807.235 885.277 807.871C880.914 812.657 876.744 817.496 872.817 822.645C868.363 828.419 863.711 834.05 858.938 839.562C853.19 846.231 847.796 853.107 842.836 860.383C838.727 866.241 834.33 871.875 829.901 877.494C824.566 884.271 819.493 891.065 814.809 898.309C811.494 903.241 807.861 908.257 803.558 912.382C801.877 914.128 800.626 915.914 799.305 917.945C798.782 918.742 798.26 919.539 797.722 920.36C797.154 921.231 796.585 922.103 796 923C794.733 924.915 793.465 926.829 792.195 928.742C791.529 929.746 790.863 930.751 790.176 931.785C789.161 933.315 789.161 933.315 788.125 934.875C787.456 935.887 786.787 936.899 786.098 937.941C782.126 943.918 778.015 949.756 773.768 955.54C771.574 958.593 769.615 961.71 767.688 964.938C764.238 970.696 764.238 970.696 762.561 972.838C753.57 985.29 748.057 1001.81 744.568 1016.68C743.931 1019.28 743.215 1021.85 742.484 1024.43C739.719 1034.19 737.259 1043.88 735.543 1053.88C735 1057 735 1057 734.476 1058.95C733.66 1062.46 733.829 1066.06 733.811 1069.65C733.802 1070.52 733.794 1071.39 733.786 1072.29C733.768 1074.18 733.753 1076.08 733.74 1077.97C733.719 1080.98 733.692 1084 733.663 1087.01C733.603 1093.42 733.551 1099.84 733.5 1106.25C733.441 1113.65 733.378 1121.04 733.308 1128.44C733.282 1131.38 733.261 1134.32 733.24 1137.26C733.001 1166 733.001 1166 731 1172C726.882 1171.83 722.763 1171.67 718.645 1171.49C712.318 1171.21 705.992 1170.96 699.662 1170.75C678.657 1170.04 657.78 1168.83 636.875 1166.62C635.91 1166.53 634.944 1166.43 633.95 1166.32C623.606 1165.25 613.511 1163.81 603.364 1161.53C591.75 1158.98 579.911 1157.68 568.129 1156.15C553.435 1154.22 539.011 1151.71 524.534 1148.54C520.848 1147.76 517.148 1147.09 513.438 1146.44C487.468 1141.62 487.468 1141.62 480 1136C478.969 1133.8 478.696 1131.95 478.418 1129.54C477.578 1124.43 475.157 1120.05 472 1116C466.953 1112.44 460.522 1109.48 454.234 1109.6C448.511 1110.63 441.906 1113.31 438.481 1118.14C437.607 1120.08 436.799 1122.04 436 1124C432.273 1125.89 428.702 1124.37 424.875 1123.31C423.015 1122.81 423.015 1122.81 421.117 1122.3C417.239 1121.14 413.538 1119.64 409.794 1118.11C404.403 1115.97 398.909 1114.11 393.438 1112.19C385.704 1109.46 378.024 1106.7 370.5 1103.44C361.665 1099.61 352.458 1096.85 343.266 1094.02C341.512 1093.47 341.512 1093.47 339.723 1092.92C338.668 1092.6 337.614 1092.27 336.528 1091.94C334 1091 334 1091 332 1089C331.561 1086.81 331.561 1086.81 331.289 1084.07C331.181 1083.06 331.073 1082.05 330.962 1081C330.851 1079.91 330.74 1078.82 330.625 1077.69C328.689 1060.43 325.467 1044.01 320.642 1027.32C318.691 1020.56 316.944 1013.79 315.375 1006.94C313.982 1000.85 312.413 994.922 310.438 989C308.073 981.905 306.668 974.725 305.432 967.355C304.721 963.242 303.898 959.499 302.32 955.625C300.685 951.135 300.685 951.135 302 948C302.99 947.67 303.98 947.34 305 947C306.532 943.936 306.23 941.383 306 938C305.116 935.053 305.116 935.053 303 933C299.401 932.104 299.401 932.104 296 932C294.737 928.211 294.838 924.651 294.832 920.703C294.829 919.877 294.825 919.051 294.822 918.201C294.817 916.445 294.815 914.69 294.815 912.935C294.813 910.302 294.795 907.669 294.776 905.035C294.745 895.984 295.135 887.306 296.499 878.347C297.241 873.395 297.622 868.429 298 863.438C298.163 861.368 298.327 859.299 298.492 857.23C298.574 856.198 298.657 855.166 298.741 854.103C299.076 850.092 299.464 846.088 299.852 842.082C300.582 834.51 301.24 827.057 300.973 819.438C301 817 301 817 301.468 814.4C302.107 810.319 302.338 806.29 302.535 802.168C302.578 801.311 302.622 800.455 302.666 799.572C302.804 796.778 302.935 793.983 303.063 791.188C303.129 789.751 303.129 789.751 303.197 788.285C304.314 763.596 304.72 739.182 302.33 714.55C301.634 707.061 301.063 699.562 300.5 692.062C300.436 691.212 300.371 690.361 300.305 689.484C299 671.992 298.266 654.485 297.647 636.957C297.61 635.945 297.573 634.933 297.535 633.89C297.467 631.999 297.402 630.108 297.342 628.217C297.17 623.406 296.72 618.766 296 614C295.07 598.949 296.026 584.744 299.526 570.107C300.204 567.093 300.639 564.059 301.063 561C301.633 557.039 302.387 553.214 303.387 549.34C304.408 545.338 305.406 541.334 306.36 537.316C308.692 527.618 311.193 518.142 314.563 508.75C319.011 496.182 320.963 483.135 323 470C323.191 468.768 323.383 467.535 323.58 466.266C324.056 463.178 324.53 460.089 325 457C328.325 455.892 329.411 456.136 332.75 456.875C338.541 458.018 344.243 458.387 350.129 458.719C353.855 458.989 357.493 459.454 361.188 460C366.869 460.804 372.456 461.216 378.188 461.438C386.832 461.781 395.399 462.574 404 463.5C405.224 463.631 406.447 463.762 407.708 463.896C417.218 464.949 417.218 464.949 421 466C421.81 482.706 417.965 498.561 414.129 514.718C412.562 521.372 411.253 527.903 410.422 534.691C410.015 537.88 409.502 541.029 408.951 544.195C408.27 548.125 407.636 552.062 407 556C406.859 556.852 406.718 557.703 406.572 558.581C403.893 575.101 403.603 591.291 404 608C404.021 609.053 404.042 610.106 404.063 611.191C404.494 630.971 407.181 649.738 411.931 668.945C415.253 682.539 418.253 699.949 412 713C408.736 721.508 406.089 729.988 403.895 738.82C403.145 741.485 402.241 743.559 401 746C400.705 747.408 400.459 748.827 400.25 750.25C399.279 755.353 397.609 760.012 395.735 764.849C393.026 771.853 390.511 778.922 388 786C384.944 794.591 381.856 803.164 378.625 811.691C375.932 818.803 373.314 825.944 370.679 833.077C367.038 842.923 367.038 842.923 365.27 847.555C362.103 855.85 359.208 864.207 356.447 872.646C355.167 876.549 353.858 880.413 352.36 884.238C351.134 887.629 350.422 890.63 349.938 894.188C349.534 897.117 349.163 899.616 348.007 902.342C346.955 905.12 346.604 907.413 346.367 910.367C346.283 911.407 346.199 912.446 346.112 913.517C346.034 914.625 345.956 915.733 345.875 916.875C345.75 918.598 345.75 918.598 345.622 920.356C344.364 939.051 343.937 957.157 349.215 975.297C349.76 977.173 350.271 979.06 350.754 980.953C351.989 985.791 353.168 989.819 356 994C356 994.66 356 995.32 356 996C356.66 996 357.32 996 358 996C359.165 982.75 356.185 968.555 352 956C351.765 953.224 351.578 950.468 351.438 947.688C351.395 946.892 351.353 946.096 351.309 945.276C350.957 938.179 350.897 931.105 351 924C354.29 922.903 355.713 923.2 359 924C358.505 920.535 358.505 920.535 358 917C356.02 916.34 354.04 915.68 352 915C353.916 903.901 356.153 893.619 360.621 883.262C362.142 879.664 363.238 876.066 364.293 872.312C365.041 869.866 365.957 867.55 366.938 865.188C368.436 861.543 369.684 857.901 370.813 854.125C374.556 841.671 378.767 829.298 384.055 817.41C385.021 814.946 385.501 812.592 386 810C386.454 809.113 386.908 808.226 387.375 807.312C389.117 803.762 390.164 800.292 391.254 796.504C392.104 793.65 393.114 790.895 394.192 788.121C394.787 786.56 395.353 784.988 395.902 783.41C396.223 782.491 396.544 781.572 396.875 780.625C397.161 779.792 397.447 778.96 397.742 778.102C398.833 775.412 400.053 772.934 401.391 770.363C404.146 764.926 406.039 759.363 407.875 753.562C410.246 746.247 412.694 738.996 415.438 731.812C418.27 724.365 420.62 716.809 422.918 709.18C425.779 699.691 428.768 690.708 433.211 681.832C437.677 672.624 440.664 662.656 444 653C444.253 652.267 444.507 651.535 444.768 650.78C450.502 634.175 456.17 617.548 461.708 600.877C466.082 587.729 471.055 577.667 480 567C480.859 565.943 481.717 564.886 482.574 563.828C498.049 544.903 518.163 531.248 537.942 517.199C546.176 511.349 554.294 505.522 561.75 498.688C567.039 493.865 572.645 489.527 578.361 485.232C579.959 484.031 581.552 482.822 583.145 481.613C591.859 475.024 600.703 468.775 609.945 462.949C613.512 460.673 617.042 458.346 620.563 456C621.204 455.573 621.846 455.146 622.507 454.705C626.924 451.751 631.272 448.712 635.559 445.57C638.277 443.822 641.074 442.42 643.976 441.004C645.752 440.123 647.493 439.172 649.227 438.211C663.211 430.656 686.779 419.293 703 421C706.023 423.39 707.837 425.739 709.875 429C715.227 436.556 722.409 438.479 731.078 440.352C735.177 441.029 738.374 441.04 742.43 440.344C745.567 439.924 748.526 440.111 751.688 440.25C765.822 440.35 788.908 437.238 799.738 427.551C802.131 424.996 802.131 424.996 804.063 421.688C804.702 420.801 805.341 419.914 806 419ZM689 455C687.363 456.96 687.363 456.96 686 459C686.99 459.33 687.98 459.66 689 460C689.99 459.01 690.98 458.02 692 457C691.67 456.34 691.34 455.68 691 455C690.34 455 689.68 455 689 455ZM649 463C648.34 463.66 647.68 464.32 647 465C647.99 465 648.98 465 650 465C649.67 464.34 649.34 463.68 649 463ZM695 481C695.33 481.99 695.66 482.98 696 484C696.33 483.01 696.66 482.02 697 481C696.34 481 695.68 481 695 481ZM605 494C605.33 494.99 605.66 495.98 606 497C606.99 496.67 607.98 496.34 609 496C607.68 495.34 606.36 494.68 605 494ZM829 511C829.66 512.32 830.32 513.64 831 515C831.33 513.68 831.66 512.36 832 511C831.01 511 830.02 511 829 511ZM624 534C624.99 534.495 624.99 534.495 626 535C626.702 536.652 627.37 538.319 628 540C628.33 540.33 628.66 540.66 629 541C629.285 543.776 629.449 546.551 629.621 549.336C629.836 552.222 629.836 552.222 632 555C634.016 554.284 634.016 554.284 636 553C637.239 550.047 637.042 549.126 636 546C635.34 546 634.68 546 634 546C631.96 543.12 631.97 541.229 632.5 537.875C632.665 536.596 632.83 535.317 633 534C632.34 533.34 631.68 532.68 631 532C627.895 532 626.648 532.539 624 534ZM767 545C766.01 545.99 765.02 546.98 764 548C764.99 548.495 764.99 548.495 766 549C766.99 548.01 767.98 547.02 769 546C768.34 545.67 767.68 545.34 767 545ZM587.313 557C586.219 557.99 585.126 558.98 584 560C585.65 562.64 587.3 565.28 589 568C591.904 567.892 591.904 567.892 595 567C597.028 564.579 598.069 563.136 597.875 559.938C596.83 557.623 595.731 555.864 594 554C590.411 554 589.892 554.664 587.313 557ZM752 583C750.644 584.125 750.644 584.125 750.938 587.062C750.958 588.032 750.979 589.001 751 590C752.583 588.751 752.583 588.751 754 587C754 585.68 754 584.36 754 583C753.34 583 752.68 583 752 583ZM554 584C554.33 584.66 554.66 585.32 555 586C555.66 585.34 556.32 584.68 557 584C556.01 584 555.02 584 554 584ZM362 595C362.33 595.99 362.66 596.98 363 598C363.66 597.67 364.32 597.34 365 597C365 596.34 365 595.68 365 595C364.01 595 363.02 595 362 595ZM377 630C377.33 630.66 377.66 631.32 378 632C378.33 631.34 378.66 630.68 379 630C378.34 630 377.68 630 377 630ZM559 644C559.33 644.66 559.66 645.32 560 646C560.33 645.34 560.66 644.68 561 644C560.34 644 559.68 644 559 644ZM520 646C519.01 647.485 519.01 647.485 518 649C520.97 649.495 520.97 649.495 524 650C524 649.01 524 648.02 524 647C522.68 646.67 521.36 646.34 520 646ZM353 677C351.236 680.088 351 681.233 351 685C351.99 684.67 352.98 684.34 354 684C354 681.69 354 679.38 354 677C353.67 677 353.34 677 353 677ZM370 683C367.706 686.441 367.737 687.968 368 692C369.067 693.296 369.067 693.296 371.563 693.062C372.367 693.042 373.171 693.021 374 693C376.406 689.059 376.406 689.059 376.688 684.625C376.461 684.089 376.234 683.553 376 683C373.084 682.75 373.084 682.75 370 683ZM640 684C640 685.65 640 687.3 640 689C639.34 689 638.68 689 638 689C638.33 689.99 638.66 690.98 639 692C642.247 688.512 642.247 688.512 643 684C642.01 684 641.02 684 640 684ZM318 701C318 701.99 318 702.98 318 704C318.66 703.34 319.32 702.68 320 702C319.34 701.67 318.68 701.34 318 701ZM494 701C492.515 703.475 492.515 703.475 491 706C492.32 706.99 493.64 707.98 495 709C495.99 708.34 496.98 707.68 498 707C497.67 705.35 497.34 703.7 497 702C496.01 701.67 495.02 701.34 494 701ZM631 718C631 718.99 631 719.98 631 721C630.237 721.041 629.474 721.082 628.688 721.125C625.676 721.778 625.676 721.778 624.188 725.062C623.6 726.517 623.6 726.517 623 728C623.99 729.32 624.98 730.64 626 732C629.915 731.727 631.703 731.25 634.75 728.688C636.611 726.465 637.916 724.661 639 722C635.33 719.088 635.33 719.088 631 718ZM661 747C660.34 748.32 659.68 749.64 659 751C659.99 751 660.98 751 662 751C661.67 749.68 661.34 748.36 661 747ZM448 754C447.34 755.32 446.68 756.64 446 758C447.892 758.681 447.892 758.681 450 759C450.66 758.34 451.32 757.68 452 757C451.34 756.01 450.68 755.02 450 754C449.34 754 448.68 754 448 754ZM481 774C481 774.99 481 775.98 481 777C482.32 777.33 483.64 777.66 485 778C484.34 776.68 483.68 775.36 483 774C482.34 774 481.68 774 481 774ZM655 779C654.108 782.096 654.108 782.096 654 785C656.648 784.642 658.555 784.318 660.75 782.75C662.318 780.555 662.642 778.648 663 776C659.305 776 657.886 776.721 655 779ZM597 798C597.33 799.98 597.66 801.96 598 804C599.542 802.625 599.542 802.625 601 801C601 800.34 601 799.68 601 799C599.68 798.67 598.36 798.34 597 798ZM515 809C516 811 516 811 516 811L515 809ZM830 816C830.33 816.99 830.66 817.98 831 819C831 818.01 831 817.02 831 816C830.67 816 830.34 816 830 816ZM454 822C453.01 822.495 453.01 822.495 452 823C452 824.65 452 826.3 452 828C453.32 827.67 454.64 827.34 456 827C456.33 825.68 456.66 824.36 457 823C456.01 822.67 455.02 822.34 454 822ZM786 832C785.67 832.66 785.34 833.32 785 834C782.03 833.505 782.03 833.505 779 833C778.67 834.65 778.34 836.3 778 838C779.736 838.874 779.736 838.874 782 839C784.753 837.148 784.753 837.148 787 835C786.67 834.01 786.34 833.02 786 832ZM410 844C409.34 844 408.68 844 408 844C407.309 845.847 407.309 845.847 407 848C407.99 849.485 407.99 849.485 409 851C410.907 851.401 410.907 851.401 413 851.25C414.052 851.227 414.052 851.227 415.125 851.203C417.089 851.1 417.089 851.1 419 850C419 848.68 419 847.36 419 846C415.765 843.394 413.924 842.512 410 844ZM800 859C800 860.65 800 862.3 800 864C800.99 863.67 801.98 863.34 803 863C803.733 860.985 803.733 860.985 804 859C802.68 859 801.36 859 800 859ZM586 872C585.67 873.65 585.34 875.3 585 877C586.32 877 587.64 877 589 877C590.774 875.08 590.774 875.08 592 873C589.03 872.505 589.03 872.505 586 872ZM406 880C406 881.32 406 882.64 406 884C410.95 882.515 410.95 882.515 416 881C415.67 880.01 415.34 879.02 415 878C411.375 877.799 409.135 878.142 406 880ZM721 899C721 899.66 721 900.32 721 901C720.34 901 719.68 901 719 901C719.506 903.169 720 905 721 907C722.95 906.805 722.95 906.805 725 906C726.721 903.418 727 902.151 727 899C725.02 899 723.04 899 721 899ZM732 912C733 914 733 914 733 914L732 912ZM621 913C621.33 914.98 621.66 916.96 622 919C622.33 919 622.66 919 623 919C623 917.02 623 915.04 623 913C622.34 913 621.68 913 621 913ZM573 940C570.907 943.402 570.821 946.053 571 950C570.01 950.33 569.02 950.66 568 951C568.33 952.65 568.66 954.3 569 956C571.095 957.06 571.095 957.06 574 957C578.507 954.51 581.962 951.798 584 947C582.738 945.824 581.465 944.66 580.188 943.5C579.48 942.85 578.772 942.201 578.043 941.531C576.026 939.7 576.026 939.7 573 940ZM419 942C419.564 944.048 419.564 944.048 421 946C425.332 947.348 427.974 947.013 432 945C431.67 943.68 431.34 942.36 431 941C426.907 940.876 423.042 941.366 419 942ZM640 952C637.056 954.945 636.024 956.33 635.875 960.562C636.732 964.182 636.732 964.182 639.75 966.375C642.623 967.811 644.835 968.628 648 969C649.526 966.531 649.526 966.531 650 963C648.86 959.332 647.399 956.011 645 953C642.409 952.139 642.409 952.139 640 952ZM737 952C734.831 954.189 734.831 954.189 733 957C733.132 959.751 733.132 959.751 734 962C737.092 959.47 737.909 956.775 739 953C738.34 952.67 737.68 952.34 737 952ZM537 953C537.33 954.65 537.66 956.3 538 958C538.99 958.33 539.98 958.66 541 959C541.33 956.69 541.66 954.38 542 952C539.789 951.895 539.789 951.895 537 953ZM703 968C703 970.97 703 973.94 703 977C703.33 977 703.66 977 704 977C704 974.03 704 971.06 704 968C703.67 968 703.34 968 703 968ZM409 993C409.33 994.32 409.66 995.64 410 997C411.65 997 413.3 997 415 997C414.67 995.68 414.34 994.36 414 993C412.35 993 410.7 993 409 993ZM511 997C510.67 997.99 510.34 998.98 510 1000C510.99 1000 511.98 1000 513 1000C513.33 1001.32 513.66 1002.64 514 1004C515.975 1003.65 515.975 1003.65 518 1003C518.33 1002.34 518.66 1001.68 519 1001C517.843 998.9 517.843 998.9 516 997C513.374 996.666 513.374 996.666 511 997ZM668 1005C668 1005.99 668 1006.98 668 1008C668.66 1008 669.32 1008 670 1008C669.67 1007.01 669.34 1006.02 669 1005C668.67 1005 668.34 1005 668 1005ZM402 1013C401.67 1014.32 401.34 1015.64 401 1017C402.65 1017 404.3 1017 406 1017C406.33 1016.34 406.66 1015.68 407 1015C404.525 1014.01 404.525 1014.01 402 1013ZM524 1020C524.223 1024.17 524.223 1024.17 526.563 1027.38C530.222 1028.31 533.214 1028.31 537 1028C537.66 1027.01 538.32 1026.02 539 1025C534.037 1022.63 529.541 1020.57 524 1020ZM376 1034C376.33 1035.32 376.66 1036.64 377 1038C377.66 1037.67 378.32 1037.34 379 1037C378.67 1036.01 378.34 1035.02 378 1034C377.34 1034 376.68 1034 376 1034ZM430 1042C429.67 1042.99 429.34 1043.98 429 1045C429.66 1045.66 430.32 1046.32 431 1047C433.093 1046.91 433.093 1046.91 435 1046C435.33 1045.01 435.66 1044.02 436 1043C434.934 1041.7 434.934 1041.7 432.438 1041.94C431.633 1041.96 430.829 1041.98 430 1042ZM398.438 1055.25C395.558 1057.89 395.558 1057.89 396 1062C398.352 1061.4 400.686 1060.73 403 1060C403.33 1059.34 403.66 1058.68 404 1058C403.106 1055.39 403.106 1055.39 402 1053C400.557 1052.89 400.557 1052.89 398.438 1055.25ZM358 1058C357.34 1059.32 356.68 1060.64 356 1062C356.33 1062.33 356.66 1062.66 357 1063C361.064 1062.8 361.064 1062.8 365 1062C365.66 1061.01 366.32 1060.02 367 1059C363.804 1057.93 361.343 1057.93 358 1058ZM500 1067C500.114 1068.63 500.242 1070.25 500.375 1071.88C500.445 1072.78 500.514 1073.68 500.586 1074.62C500.796 1077.18 500.796 1077.18 503 1079C505.406 1076.38 505.406 1076.38 506 1073C504.596 1070.19 502.519 1068.81 500 1067ZM617 1069C617.33 1069.99 617.66 1070.98 618 1072C618.33 1071.01 618.66 1070.02 619 1069C618.34 1069 617.68 1069 617 1069ZM679 1074C679.33 1074.99 679.66 1075.98 680 1077C681.98 1077 683.96 1077 686 1077C686.33 1076.01 686.66 1075.02 687 1074C684.36 1074 681.72 1074 679 1074ZM710 1097C710.33 1097.99 710.66 1098.98 711 1100C711.99 1099.67 712.98 1099.34 714 1099C712.68 1098.34 711.36 1097.68 710 1097ZM691 1110C690.67 1111.32 690.34 1112.64 690 1114C690.99 1113.67 691.98 1113.34 693 1113C692.67 1112.01 692.34 1111.02 692 1110C691.67 1110 691.34 1110 691 1110ZM670 1113C670 1113.99 670 1114.98 670 1116C670.99 1116.33 671.98 1116.66 673 1117C673 1116.01 673 1115.02 673 1114C672.01 1113.67 671.02 1113.34 670 1113ZM603 1126C602.67 1126.99 602.34 1127.98 602 1129C603.32 1128.67 604.64 1128.34 606 1128C605.01 1127.34 604.02 1126.68 603 1126Z" fill="black"/>
<path d="M337 1099C341.887 1099.22 345.265 1100.51 349.605 1102.78C355.983 1106.11 362.465 1108.34 369.312 1110.5C376.494 1112.82 383.609 1115.12 390.562 1118.06C399.441 1121.76 408.663 1124.4 417.863 1127.17C418.895 1127.48 419.926 1127.79 420.989 1128.12C422.959 1128.7 424.94 1129.24 426.931 1129.74C433.584 1131.46 433.584 1131.46 435.746 1134.27C436.088 1135.53 436.088 1135.53 436.438 1136.81C436.715 1137.7 436.992 1138.58 437.277 1139.5C437.516 1140.32 437.754 1141.15 438 1142C439.85 1146.16 441.531 1149.04 445 1152C452.865 1154.79 460.409 1154.32 468 1151C469.922 1149.68 469.922 1149.68 471.625 1148.25C474.317 1146.13 475.83 1145.71 479.25 1146.06C480.838 1146.35 482.421 1146.66 484 1147C484.869 1147.14 485.738 1147.28 486.633 1147.43C492.182 1148.33 497.528 1149.65 502.934 1151.18C515.299 1154.49 528.024 1156.55 540.603 1158.87C549.197 1160.46 557.75 1162.14 566.27 1164.09C573.948 1165.84 581.62 1167.08 589.438 1168.06C591.955 1168.39 594.472 1168.73 596.988 1169.06C598.189 1169.22 599.39 1169.38 600.627 1169.54C605.14 1170.16 609.632 1170.88 614.125 1171.62C632.44 1174.59 650.879 1175.65 669.381 1176.76C672.789 1176.99 676.187 1177.27 679.59 1177.56C686.299 1178.09 692.962 1178.07 699.688 1178C708.034 1177.96 716.352 1177.97 724.688 1178.44C725.429 1178.48 726.17 1178.52 726.934 1178.56C731.867 1178.87 731.867 1178.87 733 1180C734.601 1188.53 735.129 1196.82 735.012 1205.49C734.882 1220.62 735.802 1235.8 737 1250.88C737.083 1251.92 737.166 1252.97 737.251 1254.04C737.668 1259.28 737.668 1259.28 738.518 1264.45C739.049 1267.26 739.16 1269.89 739.211 1272.74C739.251 1274.44 739.251 1274.44 739.291 1276.18C739.319 1277.4 739.346 1278.62 739.375 1279.88C739.853 1296.93 741.086 1314.05 743.582 1330.94C744.312 1336.63 744.186 1342.4 744.185 1348.13C744.187 1350.17 744.206 1352.2 744.225 1354.23C744.261 1362.68 743.462 1370.69 742 1379C741.603 1381.85 741.265 1384.7 740.938 1387.56C740.86 1388.21 740.782 1388.87 740.701 1389.54C740.342 1392.62 740.015 1395.68 739.866 1398.79C739.452 1406.42 737.68 1412.63 734.812 1419.69C733.983 1421.8 733.155 1423.92 732.328 1426.04C731.925 1427.06 731.522 1428.08 731.107 1429.13C729.901 1432.26 728.8 1435.4 727.732 1438.57C722.618 1453.77 716.115 1468.52 708.397 1482.57C705.262 1488.33 702.59 1494.25 699.938 1500.25C696.658 1507.64 693.11 1514.42 688.734 1521.23C685.046 1527.13 682.503 1533.29 680.457 1539.92C675.527 1555.65 675.527 1555.65 670.438 1558.5C669.663 1558.86 668.888 1559.22 668.09 1559.59C665.167 1561.56 664.709 1563.73 663.5 1567C661.719 1571.01 660.288 1573.17 656.309 1574.93C652.633 1576.3 648.879 1577.36 645.1 1578.39C642.209 1579.23 639.467 1580.35 636.688 1581.5C629.553 1584.29 622.24 1586.42 614.895 1588.57C613.695 1588.92 613.695 1588.92 612.471 1589.28C610.763 1589.78 609.051 1590.26 607.337 1590.74C602.739 1592.05 599.098 1593.51 595 1596C592.291 1596.78 589.617 1597.48 586.875 1598.12C580.205 1599.78 573.733 1601.73 567.25 1604.01C553.819 1608.72 540.249 1612.39 526.438 1615.81C525.043 1616.16 525.043 1616.16 523.621 1616.51C512.734 1619.2 501.823 1621.75 490.867 1624.15C487.238 1624.95 483.619 1625.78 480 1626.62C473.975 1627.92 467.99 1628.57 461.867 1629.16C456.752 1629.7 451.911 1630.64 446.938 1631.94C435.794 1634.78 424.428 1635.92 413 1637C411.975 1637.1 410.95 1637.2 409.894 1637.3C406.993 1637.57 404.093 1637.79 401.188 1638C400.316 1638.08 399.445 1638.16 398.548 1638.24C396.255 1638.37 394.256 1638.43 392 1638C386.919 1633.2 386.783 1628.82 386.535 1622.16C386.498 1621.25 386.46 1620.35 386.421 1619.42C386.34 1617.46 386.261 1615.51 386.184 1613.56C385.98 1608.42 385.763 1603.28 385.543 1598.14C385.499 1597.1 385.455 1596.07 385.41 1595.01C385.007 1585.77 384.462 1576.54 383.875 1567.31C383.291 1558.12 382.878 1548.98 383.036 1539.76C383.085 1535.35 382.702 1531.17 382.062 1526.81C379.683 1510.32 379.918 1493.36 380.047 1476.72C380.053 1475.84 380.06 1474.97 380.067 1474.07C380.073 1473.19 380.08 1472.31 380.087 1471.41C380.196 1456.61 380.03 1442.28 377.789 1427.61C376.82 1421.2 376.418 1414.78 376 1408.31C375.417 1399.6 374.531 1391.04 373.176 1382.41C371.813 1373.42 371.087 1364.38 370.314 1355.32C369.597 1346.96 368.765 1338.66 367.438 1330.38C365.973 1321.15 365.416 1311.92 364.885 1302.61C364.226 1291.16 362.952 1279.91 361.344 1268.56C360.805 1264.55 360.399 1260.53 360 1256.5C359.401 1250.46 358.671 1244.46 357.843 1238.45C356.408 1228.01 355.503 1217.68 355.088 1207.15C354.95 1203.79 354.764 1200.43 354.562 1197.06C354.502 1195.98 354.441 1194.9 354.379 1193.79C353.953 1189.53 353.26 1185.35 352.533 1181.13C352.034 1178.2 351.579 1175.26 351.141 1172.32C349.471 1161.39 347.319 1150.89 344.15 1140.31C340.086 1126.72 338.289 1113.09 337 1099ZM550 1206C550 1209 550 1209 550 1209V1206ZM410 1214C410 1214.66 410 1215.32 410 1216C411.32 1216 412.64 1216 414 1216C414 1215.34 414 1214.68 414 1214C412.68 1214 411.36 1214 410 1214ZM507 1228C506.67 1229.98 506.34 1231.96 506 1234C506.99 1234.33 507.98 1234.66 509 1235C508.67 1232.69 508.34 1230.38 508 1228C507.67 1228 507.34 1228 507 1228ZM451 1232C452 1234 452 1234 452 1234L451 1232ZM687 1234C687.33 1234.66 687.66 1235.32 688 1236C688.33 1235.34 688.66 1234.68 689 1234C688.34 1234 687.68 1234 687 1234ZM452 1270C450.138 1272.41 450.138 1272.41 449 1275C451.941 1274.82 451.941 1274.82 455 1274C456.436 1272.05 456.436 1272.05 457 1270C454.627 1269.58 454.627 1269.58 452 1270ZM610 1309C610 1309.99 610 1310.98 610 1312C610.66 1312 611.32 1312 612 1312C611.67 1311.01 611.34 1310.02 611 1309C610.67 1309 610.34 1309 610 1309ZM397 1318C396.67 1319.32 396.34 1320.64 396 1322C396.99 1321.67 397.98 1321.34 399 1321C398.67 1320.01 398.34 1319.02 398 1318C397.67 1318 397.34 1318 397 1318ZM607 1340C606.67 1340.99 606.34 1341.98 606 1343C607.65 1342.34 609.3 1341.68 611 1341C609.68 1340.67 608.36 1340.34 607 1340ZM432 1353C431.34 1354.98 430.68 1356.96 430 1359C431.32 1358.34 432.64 1357.68 434 1357C434 1355.68 434 1354.36 434 1353C433.34 1353 432.68 1353 432 1353ZM593 1366C594 1368 594 1368 594 1368L593 1366ZM550 1388C549.67 1389.32 549.34 1390.64 549 1392C551.475 1393.49 551.475 1393.49 554 1395C555.65 1393.35 557.3 1391.7 559 1390C554.545 1389.01 554.545 1389.01 550 1388ZM626 1412C626 1412.66 626 1413.32 626 1414C627.32 1414.33 628.64 1414.66 630 1415C630.33 1414.01 630.66 1413.02 631 1412C629.35 1412 627.7 1412 626 1412ZM710 1422C711 1424 711 1424 711 1424L710 1422ZM596 1464C596.33 1464.66 596.66 1465.32 597 1466C597.33 1465.34 597.66 1464.68 598 1464C597.34 1464 596.68 1464 596 1464ZM488 1511C486.352 1512.75 486.352 1512.75 485 1515C484.985 1517.19 484.985 1517.19 486 1519C486.99 1519.33 487.98 1519.66 489 1520C490.91 1518.87 490.91 1518.87 492.688 1517.19C493.31 1516.64 493.933 1516.1 494.574 1515.54C496.226 1514.11 496.226 1514.11 496 1512C493.36 1511.67 490.72 1511.34 488 1511Z" fill="black"/>
<path d="M657 1582C656.807 1582.55 656.613 1583.09 656.414 1583.65C654.824 1588.26 653.521 1592.78 652.625 1597.57C652 1600 652 1600 650.559 1603.48C648.414 1609.08 647.837 1614.9 647.062 1620.81C645.94 1628.9 644.729 1636.91 642.938 1644.88C641.315 1652.14 640.147 1659.41 639.149 1666.79C638.055 1674.83 636.73 1682.83 635.357 1690.83C633.853 1699.66 632.835 1708.16 632.875 1717.12C632.871 1717.99 632.867 1718.86 632.863 1719.75C632.865 1720.6 632.866 1721.45 632.867 1722.32C632.869 1723.45 632.869 1723.45 632.871 1724.61C633.025 1727.46 633.516 1730.19 634 1733C632.24 1733.03 632.24 1733.03 630.444 1733.06C619.142 1733.26 607.84 1733.47 596.538 1733.68C590.733 1733.79 584.929 1733.89 579.125 1733.99C552.92 1734.45 526.744 1735.06 500.566 1736.38C486.831 1737.05 473.256 1736.95 459.52 1736.29C447.205 1735.63 447.205 1735.63 435 1737C419.102 1738.7 402.965 1738.09 387 1738C387.072 1736.86 387.144 1735.73 387.219 1734.56C388.045 1720.06 388.073 1705.59 387.963 1691.07C387.806 1665.58 387.806 1665.58 390 1659C390.044 1656.79 390.039 1654.58 390 1652.38C389.962 1650.25 389.953 1648.12 390 1646C391.64 1644.36 393.61 1644.87 395.807 1644.81C404.143 1644.57 412.031 1643.32 420.188 1641.62C429.892 1639.62 439.508 1638.28 449.375 1637.38C450.652 1637.26 451.929 1637.14 453.245 1637.01C455.715 1636.78 458.185 1636.55 460.655 1636.32C478.718 1634.59 495.596 1630.07 513 1625C516.749 1623.91 520.499 1622.83 524.25 1621.75C525.098 1621.5 525.947 1621.26 526.821 1621.01C531.936 1619.54 537.062 1618.24 542.25 1617.06C549.49 1615.42 556.654 1613.53 563.812 1611.56C564.838 1611.29 565.864 1611.01 566.921 1610.72C571.992 1609.31 576.822 1607.72 581.652 1605.62C589.478 1602.25 597.597 1599.93 605.75 1597.5C608.063 1596.8 610.376 1596.11 612.689 1595.41C614.214 1594.95 615.739 1594.49 617.264 1594.03C623.665 1592.11 630.045 1590.13 636.421 1588.12C641.114 1586.65 645.817 1585.22 650.523 1583.8C656.108 1582 656.108 1582 657 1582ZM532 1630C532.33 1630.99 532.66 1631.98 533 1633C534.32 1632.67 535.64 1632.34 537 1632C536.67 1631.01 536.34 1630.02 536 1629C533.925 1628.85 533.925 1628.85 532 1630ZM521 1647C520.34 1648.98 519.68 1650.96 519 1653C520.65 1653 522.3 1653 524 1653C523.427 1650.13 523.139 1649.14 521 1647ZM517 1667C514.942 1669.77 514.942 1669.77 513.188 1672.75C512.281 1674.23 512.281 1674.23 511.355 1675.73C510.908 1676.48 510.461 1677.23 510 1678C514.503 1677.49 516.875 1675.82 520.312 1672.94C521.637 1671.84 521.637 1671.84 522.988 1670.71C523.652 1670.15 524.316 1669.58 525 1669C524.34 1667.02 523.68 1665.04 523 1663C520.675 1663 518.598 1665.59 517 1667ZM401 1675C401.33 1676.32 401.66 1677.64 402 1679C403.98 1679 405.96 1679 408 1679C408.33 1677.35 408.66 1675.7 409 1674C405.597 1672.78 404.067 1673.14 401 1675ZM431 1683C430.67 1685.31 430.34 1687.62 430 1690C431.32 1689.67 432.64 1689.34 434 1689C434 1687.35 434 1685.7 434 1684C433.01 1683.67 432.02 1683.34 431 1683ZM607 1698C607.33 1698.66 607.66 1699.32 608 1700C608.33 1699.34 608.66 1698.68 609 1698C608.34 1698 607.68 1698 607 1698ZM602 1700C601.67 1700.99 601.34 1701.98 601 1703C602.65 1702.67 604.3 1702.34 606 1702C604.68 1701.34 603.36 1700.68 602 1700ZM475 1702C474.34 1703.32 473.68 1704.64 473 1706C473.99 1706 474.98 1706 476 1706C476.33 1704.68 476.66 1703.36 477 1702C476.34 1702 475.68 1702 475 1702Z" fill="black"/>
<path d="M428 242C439.487 249.518 445.127 258.023 448.109 271.676C451.224 288.509 450.67 304.542 445.636 320.841C444.69 324.052 444.036 327.281 443.375 330.562C442.354 335.461 441.155 340.262 439.805 345.078C438.505 349.797 437.328 354.545 436.172 359.301C435.347 362.671 434.446 366.013 433.516 369.355C427.166 392.887 425.962 417.174 425.29 441.451C425.264 442.383 425.238 443.314 425.211 444.273C425.185 445.471 425.185 445.471 425.158 446.693C424.987 449.195 424.54 451.554 424 454C408.37 457.472 391.045 454.851 375.347 453.072C365.458 452.007 355.718 451.756 345.778 451.936C340.056 452.039 334.658 451.886 329 451C327.788 447.364 328.65 446.352 330.185 443.017C331.642 439.412 332.161 435.63 332.812 431.812C334.343 423.311 336.084 414.874 337.937 406.438C340.016 396.928 341.854 387.406 343.5 377.812C352.838 323.977 352.838 323.977 363 310C366.048 308.984 368.371 309.001 371.547 309.117C379.784 309.388 385.557 308.955 391.852 303.352C393.63 301.618 395.314 299.823 397 298C397.887 297.175 398.774 296.35 399.687 295.5C401.863 293.148 403.285 290.864 404.785 288.051C406.259 285.563 407.987 283.355 409.75 281.062C418.426 269.242 423.479 255.836 428 242ZM421 304C420.34 305.32 419.68 306.64 419 308C420.98 308 422.96 308 425 308C424.67 306.68 424.34 305.36 424 304C423.01 304 422.02 304 421 304ZM380 325C380 325.99 380 326.98 380 328C380.99 327.67 381.98 327.34 383 327C382.67 326.34 382.34 325.68 382 325C381.34 325 380.68 325 380 325ZM402 345C399.697 347.148 399.697 347.148 398 350C397.977 352.724 397.977 352.724 399 355C401.709 356.354 404.009 356.065 407 356C407.269 351.349 407.269 351.349 406 347C405.34 347 404.68 347 404 347C404 346.34 404 345.68 404 345C403.34 345 402.68 345 402 345Z" fill="black"/>
<path d="M909.948 1261.3C912.597 1262.2 915.275 1262.86 918 1263.5C921.516 1264.35 924.912 1265.27 928.312 1266.5C932.318 1267.92 936.313 1268.6 940.5 1269.31C954.1 1271.89 963.103 1281.89 972 1292C973.688 1294.55 973.688 1294.55 975 1297C976.735 1299.82 978.473 1302.63 980.215 1305.45C987.13 1316.65 985.19 1333.68 982.75 1346.38C982.209 1348.59 981.629 1350.8 981 1353C980.71 1354.05 980.42 1355.1 980.121 1356.18C976.945 1366.63 971.525 1375.41 965.438 1384.38C964.749 1385.39 964.749 1385.39 964.047 1386.43C961.326 1390.36 958.464 1393.68 955 1397C952.664 1399.44 950.365 1401.91 948.062 1404.38C947.468 1405.01 946.873 1405.64 946.26 1406.3C943.396 1409.36 940.599 1412.45 937.91 1415.68C935.312 1418.73 932.508 1421.29 929.375 1423.81C928.455 1424.56 927.534 1425.31 926.586 1426.08C924 1428 924 1428 921.727 1429.07C919.639 1429.94 919.639 1429.94 919 1433C918.34 1433.66 917.68 1434.32 917 1435C917.507 1436.36 917.507 1436.36 918.023 1437.75C922.564 1450.36 924.138 1462.51 924.312 1475.88C924.33 1476.74 924.348 1477.61 924.366 1478.5C924.355 1487.67 921.227 1495.06 917.125 1503.13C916.799 1503.79 916.473 1504.45 916.137 1505.14C913.811 1509.76 911.206 1513.93 908 1518C907.34 1518 906.68 1518 906 1518C905.746 1518.6 905.492 1519.2 905.23 1519.82C900.426 1528.32 885.493 1533.35 876.426 1536.07C873.293 1536.82 870.173 1537.45 867 1538C865.721 1538.23 864.442 1538.45 863.125 1538.69C846.993 1540.31 831.819 1538.58 817 1532C816.138 1531.63 815.275 1531.26 814.387 1530.88C806.725 1527.35 797.738 1522.11 793 1515C789.477 1516.28 786.723 1517.82 783.688 1520C776.871 1524.46 769.418 1527.3 761.856 1530.27C753.761 1533.5 746.446 1537.36 739.488 1542.62C735.406 1545.61 730.893 1547.28 726.188 1549.06C725.349 1549.39 724.51 1549.71 723.646 1550.05C721.959 1550.7 720.27 1551.35 718.58 1552C715.041 1553.37 711.532 1554.82 708.025 1556.26C706 1557 706 1557 704 1557C704 1557.66 704 1558.32 704 1559C700.772 1560.46 697.542 1561.92 694.312 1563.38C693.4 1563.79 692.488 1564.2 691.549 1564.63C690.663 1565.02 689.776 1565.42 688.863 1565.84C687.646 1566.39 687.646 1566.39 686.404 1566.95C685.61 1567.29 684.817 1567.64 684 1568C683.157 1568.37 682.314 1568.75 681.446 1569.14C679 1570 679 1570 675 1570C674.688 1567.69 674.688 1567.69 675 1565C677.216 1563.51 677.216 1563.51 680 1562C680.783 1561.55 681.567 1561.09 682.374 1560.62C695.703 1553.06 709.065 1546.65 723.398 1541.22C731.809 1537.98 739.577 1533.73 747.375 1529.25C753.93 1525.53 760.586 1522.31 767.5 1519.31C774.643 1516.21 780.939 1512.96 787 1508C784.455 1496.19 784.455 1496.19 779 1486C778.595 1483.44 778.246 1480.89 777.938 1478.31C777.801 1477.25 777.801 1477.25 777.662 1476.17C776.8 1469.15 776.97 1463.19 778.812 1456.31C778.998 1455.61 779.183 1454.9 779.374 1454.18C779.746 1452.77 780.12 1451.36 780.496 1449.95C780.929 1448.27 781.313 1446.59 781.688 1444.9C785.199 1429.67 797.218 1416.52 809.941 1407.88C830.091 1395.5 848.083 1392.96 871.316 1397.86C885.815 1401.43 894.6 1407.72 905 1418C906.29 1419.27 906.29 1419.27 907.605 1420.56C909.418 1422.36 911.218 1424.17 913 1426C920.023 1421.67 926.036 1416.68 932 1411C932.506 1410.52 933.012 1410.04 933.533 1409.55C945.099 1398.54 954.72 1386.67 963 1373C963.4 1372.42 963.799 1371.84 964.211 1371.24C967.669 1366.11 969.339 1361.26 970.688 1355.25C970.895 1354.37 971.102 1353.48 971.315 1352.57C971.896 1350.05 972.452 1347.53 973 1345C973.25 1343.89 973.5 1342.78 973.758 1341.63C976.631 1327.04 976.27 1313.51 968.496 1300.48C964.091 1294.25 958.374 1290.08 952 1286C951.091 1285.4 950.182 1284.81 949.246 1284.19C929.446 1272.35 905.011 1269.96 882.605 1266.55C880.328 1266.2 878.053 1265.83 875.784 1265.44C873.415 1265.06 871.228 1264.87 868.836 1264.87C867.742 1264.87 867.742 1264.87 866.625 1264.86C865.511 1264.87 865.511 1264.87 864.375 1264.88C863.625 1264.87 862.875 1264.87 862.102 1264.86C858.547 1264.87 855.425 1265.12 852 1266C849.393 1266.16 846.796 1266.28 844.188 1266.38C833.969 1266.82 823.813 1267.83 813.643 1268.9C806.838 1269.59 800.077 1270.12 793.246 1270.43C783.62 1270.9 774.157 1272.19 764.625 1273.56C762.148 1273.91 759.671 1274.27 757.194 1274.61C755.673 1274.83 754.153 1275.04 752.633 1275.26C749.367 1275.73 746.309 1276 743 1276C742.67 1274.35 742.34 1272.7 742 1271C745.004 1269 746.091 1268.67 749.531 1268.29C750.47 1268.18 751.409 1268.07 752.376 1267.96C753.922 1267.79 753.922 1267.79 755.5 1267.63C757.121 1267.44 757.121 1267.44 758.775 1267.25C763.975 1266.66 769.177 1266.09 774.38 1265.52C778.221 1265.1 782.061 1264.68 785.901 1264.25C788.13 1264.01 790.36 1263.77 792.59 1263.53C800.442 1262.68 808.042 1261.45 815.758 1259.7C844.257 1253.51 882.045 1251.51 909.948 1261.3ZM806.312 1422.31C803.783 1424.66 803.783 1424.66 804 1427C803.01 1427.33 802.02 1427.66 801 1428C801 1428.66 801 1429.32 801 1430C800.34 1430 799.68 1430 799 1430C797.31 1432.76 797.31 1432.76 797.27 1435.9C798.099 1438.29 799.188 1439.84 800.75 1441.81C801.288 1442.51 801.825 1443.21 802.379 1443.93C803.381 1445.21 804.388 1446.49 805.402 1447.76C812.827 1457.46 812.684 1467.11 811.276 1478.77C809.95 1488.48 807.467 1496.76 802 1505C800.515 1505.99 800.515 1505.99 799 1507C801.236 1512.49 805.74 1515.57 811 1518C815.746 1518.27 818.735 1515.97 822.387 1513.18C831.292 1504.73 833.851 1493.12 834.332 1481.23C834.467 1473.06 834.094 1465.1 833 1457C831.847 1441.25 835.844 1427.95 846 1416C849.484 1412.46 853.213 1409.21 857 1406C856.505 1405.01 856.505 1405.01 856 1404C837.955 1403.05 819.407 1409.71 806.312 1422.31ZM858.375 1414.31C857.591 1415.2 856.808 1416.09 856 1417C855.385 1417.54 854.77 1418.08 854.137 1418.64C845.37 1426.51 840.93 1437.35 840 1449C839.487 1459.54 840.185 1469.87 841.464 1480.34C842.497 1489.71 840.294 1496.23 835.875 1504.44C835.48 1505.18 835.086 1505.92 834.679 1506.68C831.357 1512.72 827.37 1519.82 821 1523C821 1523.99 821 1524.98 821 1526C826.29 1528.31 831.541 1529.65 837.188 1530.75C838.221 1530.96 838.221 1530.96 839.275 1531.17C843.132 1531.89 846.24 1532.2 850 1531C855.025 1527.54 858.459 1523.12 862.168 1518.3C864 1516 864 1516 865.715 1514.59C869.579 1509.81 867.096 1498.57 866.496 1492.71C865.285 1482.3 863.33 1472.41 860.086 1462.43C856.79 1452.01 856.836 1440.31 861.223 1430.18C864.496 1423.92 868.507 1418.43 873 1413C873.804 1411.99 874.609 1410.98 875.438 1409.94C875.953 1409.3 876.469 1408.66 877 1408C869.887 1405.57 863.641 1409.67 858.375 1414.31ZM885.625 1415.31C876.852 1419.4 870.108 1425.38 866.688 1434.5C864.286 1446.6 866.411 1457.43 870 1469C871.366 1473.66 872.698 1478.32 874 1483C874.241 1483.81 874.482 1484.63 874.73 1485.46C877.714 1497.18 876.595 1510.1 870.566 1520.56C870.049 1521.37 869.533 1522.17 869 1523C868.576 1523.68 868.152 1524.36 867.715 1525.06C866.85 1526.4 865.933 1527.71 865 1529C879.689 1528.27 890.582 1521 900.5 1510.5C903.497 1506.62 905.985 1503.04 906 1498C904.359 1493.69 902.159 1489.73 899.925 1485.71C893.295 1473.45 892.872 1458.08 896.688 1444.81C898.345 1440.16 900.488 1436 903.242 1431.9C904.244 1429.99 904.244 1429.99 903.301 1427.97C899.137 1421.66 893.93 1414.54 885.625 1415.31ZM908 1442C901.013 1449.84 901.438 1456.41 901.812 1466.48C902.446 1474.97 904.744 1483.21 910 1490C910.99 1490.33 911.98 1490.66 913 1491C915.883 1484.12 917.74 1478.46 917 1471C916.906 1469.88 916.812 1468.75 916.715 1467.6C915.736 1458.39 913.456 1450.56 910 1442C909.34 1442 908.68 1442 908 1442ZM792 1446C785.238 1460.31 786.106 1479.18 791 1494C792.318 1497.27 792.318 1497.27 794 1500C794.99 1500.33 795.98 1500.66 797 1501C799.685 1498.65 800.847 1496.44 802.125 1493.13C802.458 1492.28 802.79 1491.44 803.133 1490.57C806.591 1480.32 806.817 1465.87 802 1456C799.282 1451.5 796.912 1448.12 792 1446Z" fill="black"/>
<path d="M947 649C947.99 649.495 947.99 649.495 949 650C948.385 650.736 947.77 651.472 947.137 652.23C946.328 653.206 945.52 654.182 944.688 655.188C943.487 656.632 943.487 656.632 942.262 658.105C936.467 665.522 934.355 672.265 934.484 681.664C935.336 687.172 938.109 691.101 942 695C948.885 699.618 955.368 699.762 963.375 698.438C972.513 696.177 981.039 689.135 988 683C988.33 682.34 988.66 681.68 989 681C989.66 681 990.32 681 991 681C992 684 992 684 990.594 686.934C989.907 688.108 989.208 689.275 988.5 690.438C987.749 691.702 986.997 692.966 986.246 694.23C985.866 694.864 985.485 695.497 985.093 696.15C984.103 697.826 983.16 699.531 982.223 701.238C978.865 707.33 975.179 712.305 970.402 717.352C967.206 720.875 964.37 724.628 961.538 728.447C958.925 731.934 956.1 734.945 953 738C952.197 738.803 951.395 739.605 950.568 740.432C932 759 932 759 929.795 761.193C928.093 762.906 926.509 764.667 924.938 766.5C922.396 769.437 919.793 772.301 917.139 775.137C912.014 780.627 907.262 786.309 902.704 792.28C900.31 795.405 897.861 798.292 895 801C891.163 799.506 889.538 797.364 887.25 794C886.33 792.67 886.33 792.67 885.391 791.312C884 789 884 789 884 787C883.153 786.66 883.153 786.66 882.289 786.312C867.773 777.989 856.232 751.476 851.812 736.074C851.544 735.06 851.276 734.045 851 733C853.331 730.81 855.665 728.623 858 726.438C858.695 725.787 859.39 725.137 860.105 724.467C860.793 723.825 861.48 723.184 862.188 722.523C862.82 721.932 863.453 721.341 864.105 720.732C866.037 718.967 868.008 717.258 870 715.562C878.636 708.122 886.774 699.784 894.137 691.09C908.425 675.064 926.976 657.446 947 649ZM899 712C898.123 714.664 897.78 717.204 898 720C898.99 721.485 898.99 721.485 900 723C903.465 722.505 903.465 722.505 907 722C908.793 718.155 908.793 718.155 908.465 714.043C907.714 712.329 906.863 710.66 906 709C902.839 709 901.43 710.006 899 712ZM946 717C946.33 718.32 946.66 719.64 947 721C950.077 719.282 950.077 719.282 953 717C953 715.68 953 714.36 953 713C950.608 713 947.915 715.696 946 717Z" fill="black"/>
<path d="M250.812 763.437C251.995 763.515 251.995 763.515 253.201 763.595C255.135 763.724 257.067 763.861 259 764C259 765.32 259 766.64 259 768C256.547 768.784 254.678 768.988 252.082 768.894C246.694 768.862 241.504 770.1 236.25 771.187C235.141 771.415 234.032 771.643 232.89 771.877C204.284 777.854 178.879 787.582 154 803C152.928 803.656 151.855 804.312 150.75 804.988C146.345 807.724 142.636 810.293 139 814C137.346 815.349 135.678 816.681 134 818C119.453 829.893 106.675 843.265 102 862C102.99 861.67 103.98 861.34 105 861C105.33 861.66 105.66 862.32 106 863C111.475 863.342 116.249 862.964 121 860C122.774 857.973 124.243 855.923 125.676 853.644C126.113 853.101 126.55 852.559 127 852C127.99 852 128.98 852 130 852C129.835 853.113 129.67 854.227 129.5 855.375C128.603 862.709 128.431 868.992 131 876C148.972 879.797 167.391 878.096 185.523 876.437C190.04 876.038 194.468 875.913 199 876C199 876.99 199 877.98 199 879C198.105 879.23 197.211 879.461 196.289 879.699C188.705 881.744 181.917 884.246 175 888C173.48 888.731 171.96 889.461 170.438 890.187C165.602 892.609 160.923 895.282 156.25 898C155.529 898.415 154.807 898.83 154.064 899.258C145.788 903.837 145.788 903.837 140.938 911.437C141.012 915.7 141.581 917.481 144 921C145.956 922.86 147.98 924.597 150.059 926.32C152.371 928.321 154.204 930.53 156 933C155.34 933 154.68 933 154 933C154 933.99 154 934.98 154 936C151.164 935.104 148.397 934.182 145.691 932.941C139.863 930.313 135.267 929.18 129 931C125.493 933.338 125.211 934.83 124.352 938.835C123.84 941.982 123.689 944.825 124 948C125.318 949.47 125.318 949.47 127 951C128.262 952.594 129.511 954.199 130.75 955.812C133.663 959.496 136.57 962.455 140.219 965.375C142.433 967.394 144.167 969.63 146 972C149.338 976.283 152.742 979.662 157 983C158.879 984.494 160.754 985.994 162.625 987.5C163.525 988.211 164.425 988.923 165.352 989.656C167.749 991.777 169.636 994.003 171.638 996.487C174.102 999.223 177.068 1001.26 180.062 1003.37C181.05 1004.09 181.05 1004.09 182.057 1004.82C186.074 1007.7 190.163 1010.44 194.312 1013.12C198.077 1015.58 201.325 1018.13 204.562 1021.25C210.479 1026.78 217.273 1030.76 224.141 1034.98C229.297 1038.15 234.309 1041.52 239.28 1044.97C242.187 1046.95 244.579 1048.25 248 1049C249.553 1049.91 251.07 1050.87 252.562 1051.87C266.659 1060.99 281.098 1068.67 296.441 1075.49C304.391 1079.04 312.101 1082.94 319.625 1087.31C320.248 1087.67 320.87 1088.03 321.512 1088.4C323.009 1089.26 324.505 1090.13 326 1091C326 1092.32 326 1093.64 326 1095C320.906 1094.45 317.142 1091.97 312.812 1089.44C306.627 1085.9 300.415 1082.7 293.875 1079.87C285.417 1076.21 277.17 1072.27 269 1068C268.078 1067.52 267.157 1067.04 266.208 1066.54C254.362 1060.32 242.848 1053.92 231.86 1046.28C228.279 1043.82 224.64 1041.44 221 1039.06C220.305 1038.6 219.611 1038.14 218.895 1037.67C215.765 1035.62 212.763 1033.82 209.285 1032.44C205.926 1030.97 204.029 1029.49 201.438 1026.94C197.474 1023.22 193.391 1020.03 188.938 1016.94C184.053 1013.54 179.536 1009.99 175.156 1005.94C172.765 1003.79 170.278 1001.8 167.75 999.812C164.257 997.053 161.148 994.147 158 991C156.408 989.693 154.802 988.403 153.188 987.125C152.319 986.434 151.45 985.743 150.555 985.031C148.979 983.778 147.401 982.527 145.82 981.281C141.32 977.568 138.174 973.633 134.97 968.77C132.91 965.872 130.676 963.297 128.277 960.675C127.474 959.794 126.671 958.913 125.844 958.005C125.235 957.343 124.627 956.681 124 956C124.312 960.229 124.625 964.458 124.938 968.687C125.025 969.866 125.112 971.045 125.201 972.259C125.288 973.436 125.375 974.612 125.465 975.824C125.595 977.601 125.595 977.601 125.728 979.414C125.911 981.819 126.103 984.223 126.305 986.626C126.4 987.77 126.496 988.914 126.594 990.093C126.726 991.626 126.726 991.626 126.861 993.189C127.046 996.932 126.65 1000.32 126 1004C125.34 1004 124.68 1004 124 1004C118.216 991.525 118.216 991.525 115.938 986.312C114.566 983.187 113.066 980.157 111.5 977.125C109.753 973.683 108.325 970.271 107.062 966.625C103.32 954.745 103.32 954.745 95 946.187C91.4413 944.608 88.7221 944.988 85 946C81.8601 947.97 81.8601 947.97 78.875 950.437C72.5641 955.439 72.5641 955.439 69 957C68 954 68 954 68.7422 952.097C69.3029 951.09 69.3029 951.09 69.875 950.062C72.7923 944.768 73.4931 940.061 73 934C72.2578 931.135 72.2578 931.135 71 929C64.243 925.621 53.6345 928.417 46.4375 929.437C38.2506 930.541 30.1451 931.393 21.8845 931.62C18.3797 931.743 15.1613 932.133 11.7812 933.019C7.55421 934.115 4.31827 934.154 0 934C1 931 1 931 3.87109 929.394C5.04801 928.872 6.22492 928.35 7.4375 927.812C8.61184 927.282 9.78617 926.752 10.9961 926.207C14 925 14 925 16 925C16.33 924.01 16.66 923.02 17 922C17.8869 921.896 18.7738 921.793 19.6875 921.687C23.0873 920.981 25.1161 919.87 28 918C28.99 917.67 29.98 917.34 31 917C32.3441 916.398 33.677 915.771 35 915.125C36.0209 914.633 36.0209 914.633 37.0625 914.132C39.068 912.96 40.4237 911.693 42 910C44.2192 908.076 45.4578 907.071 48.3984 906.683C51.766 905.798 52.7012 904.457 54.75 901.687C55.343 900.907 55.9359 900.127 56.5469 899.324C58.4068 896.36 58.4068 896.36 59 893C55.4034 885.605 49.2873 880.104 43 875C43.495 873.515 43.495 873.515 44 872C56.7546 872.556 56.7546 872.556 60.9375 874.562C64.2919 876.137 66.3415 876.415 70 876C73.1363 873.909 73.8169 872.94 74.7051 869.377C75.3902 863.855 74.6967 858.272 74.25 852.75C74.1623 851.49 74.0747 850.231 73.9844 848.933C73.4929 842.36 72.7418 835.96 71.4727 829.493C70.7502 825.682 70.2937 821.854 69.875 818C69.7901 817.232 69.7052 816.465 69.6177 815.674C69.0009 809.771 68.7647 803.935 69 798C69.66 797.67 70.32 797.34 71 797C71.3506 797.928 71.7012 798.856 72.0625 799.812C74.013 804.433 76.8017 808.482 79.5742 812.644C81 815 81 815 81 817C81.66 817.33 82.32 817.66 83 818C83.6984 819.989 84.3599 821.991 85 824C85.8812 825.871 86.7995 827.725 87.75 829.562C90.0311 834.051 92.243 838.562 94.375 843.125C95.1291 844.737 95.1291 844.737 95.8984 846.382C97 849 97 849 97 851C97.66 851 98.32 851 99 851C99.1586 850.443 99.3171 849.886 99.4805 849.312C104.128 834.113 115.479 822.301 128 813C129.649 811.649 131.295 810.295 132.938 808.937C137.19 805.535 141.603 802.57 146.234 799.71C148.033 798.598 149.816 797.458 151.578 796.289C161.74 789.565 172.65 783.863 184.219 779.984C187.081 779.009 187.081 779.009 190.094 777.64C199.403 773.573 208.797 771.226 218.725 769.092C224.33 767.883 229.724 766.512 235.142 764.637C240.51 762.796 245.233 763.03 250.812 763.437ZM77 825C75.5971 827.805 76.3995 829.159 77.1875 832.187C78.772 838.754 80.0577 845.351 81.25 852C81.5307 853.504 81.5307 853.504 81.8171 855.039C82.0701 856.474 82.0701 856.474 82.3281 857.937C82.4818 858.792 82.6356 859.646 82.7939 860.527C83.0197 863.236 82.5906 865.358 82 868C82.0206 869.175 82.0412 870.351 82.0625 871.562C81.9734 876.462 81.9734 876.462 80 879C76.0638 880.982 72.8118 881.243 68.4375 881.187C67.3225 881.181 66.2074 881.174 65.0586 881.168C62.5244 881.028 60.4131 880.737 58 880C57.67 880.66 57.34 881.32 57 882C58.6374 884.799 60.4886 887.413 62.3359 890.078C64.1334 893.234 64.9021 895.371 65 899C63.7422 901.16 63.7422 901.16 61.875 903.062C61.2227 903.741 60.5705 904.421 59.8984 905.121C58.9587 906.051 58.9587 906.051 58 907C57.175 907.866 56.35 908.732 55.5 909.625C49.9573 914.89 45.0022 918.806 38 922C38 922.66 38 923.32 38 924C39.3549 923.883 40.7089 923.756 42.0625 923.625C42.8166 923.555 43.5707 923.485 44.3477 923.414C47.1443 923.046 47.1443 923.046 50.3047 921.953C54.3545 920.908 57.9371 920.842 62.0625 921.125C62.7438 921.148 63.425 921.171 64.127 921.195C69.1487 921.504 72.0099 923.047 76 926C76.66 926 77.32 926 78 926C78.99 930.29 79.98 934.58 81 939C82.253 938.976 83.5059 938.953 84.7969 938.929C86.4479 938.91 88.099 938.892 89.75 938.875C90.575 938.858 91.4 938.841 92.25 938.824C93.0492 938.817 93.8484 938.811 94.6719 938.804C95.405 938.794 96.1382 938.783 96.8936 938.773C99.3852 939.041 100.899 939.635 103 941C104.157 942.616 104.157 942.616 105.07 944.519C105.409 945.212 105.748 945.905 106.098 946.619C106.437 947.343 106.776 948.066 107.125 948.812C107.472 949.524 107.819 950.236 108.176 950.97C110.674 956.145 112.831 961.35 114.625 966.812C115.016 967.997 115.016 967.997 115.414 969.207C115.704 970.094 115.704 970.094 116 971C116.66 971 117.32 971 118 971C117.964 970.28 117.929 969.56 117.892 968.819C116.225 934.05 116.225 934.05 120.312 927.812C122.714 925.299 123.854 924.166 127 923C129.578 923.023 129.578 923.023 132.25 923.375C133.142 923.485 134.034 923.596 134.953 923.71C135.629 923.806 136.304 923.901 137 924C136.439 921.448 135.893 919.825 134.5 917.562C132.894 914.819 132.078 913.181 132 910C138.004 896.491 157.604 890.65 170 885C170 884.01 170 883.02 170 882C169.068 882.144 168.136 882.288 167.176 882.437C153.409 884.442 140.73 884.127 127 882C126.693 881.062 126.386 880.125 126.07 879.16C125.074 876.067 125.074 876.067 123.875 873.437C122.929 870.801 122.841 868.778 123 866C120.834 866.97 119.243 867.723 117.664 869.523C114.49 872.339 110.083 872.025 106 872C102.375 871.062 102.375 871.062 100 870C99.9381 869.278 99.8762 868.556 99.8125 867.812C99.2153 864.829 99.2153 864.829 96.6992 862.89C93.2786 859.227 91.8088 855.556 90 850.937C89.6582 850.095 89.3165 849.253 88.9644 848.386C88.2821 846.704 87.6047 845.02 86.9326 843.335C85.693 840.231 84.412 837.146 83.125 834.062C82.7563 833.166 82.3877 832.27 82.0078 831.347C81.0798 829.186 80.0769 827.09 79 825C78.34 825 77.68 825 77 825Z" fill="#030303"/>
<path d="M287 641C288.376 645.036 288.312 649.284 288.5 653.508C288.541 654.348 288.581 655.187 288.623 656.052C288.753 658.743 288.877 661.434 289 664.125C289.124 666.754 289.25 669.382 289.375 672.01C289.459 673.778 289.543 675.545 289.625 677.313C289.81 681.237 290.002 685.16 290.248 689.08C291.218 704.627 291.581 720.199 291.996 735.768C292.041 737.429 292.085 739.089 292.13 740.749C293.036 774.172 293.244 807.567 293 841C291 840 291 840 290.21 837.922C289.959 837.017 289.708 836.112 289.449 835.18C289.165 834.177 288.881 833.173 288.589 832.139C288.291 831.062 287.994 829.985 287.688 828.875C285.34 820.575 282.884 812.363 280.043 804.219C279 801 279 801 278.188 797.465C276.65 791.142 274.147 785.125 271.813 779.063C271.31 777.751 270.807 776.439 270.305 775.127C268.879 771.414 267.442 767.707 266 764C265.663 763.13 265.326 762.261 264.978 761.364C259.5 747.334 253.206 733.426 245.961 720.219C242.717 714.255 240.224 708.876 242 702C244.563 699.188 244.563 699.188 247 697C246.95 694.24 246.95 694.24 246 692C244.68 692 243.36 692 242 692C241.505 694.475 241.505 694.475 241 697C239.68 696.67 238.36 696.34 237 696C230.673 670.324 230.673 670.324 236 658C236.528 656.763 236.528 656.763 237.067 655.5C240.298 648.505 244.307 642.577 250.688 638.125C262.301 634.181 276.978 632.713 287 641ZM270 693C270.293 696.516 270.693 697.726 273.375 700.125C274.675 701.054 274.675 701.054 276 702C277.018 702.983 278.026 703.975 279 705C279.66 704.67 280.32 704.34 281 704C280.67 700.7 280.34 697.4 280 694C278.36 694.31 278.36 694.31 276.688 694.625C273 695 273 695 270 693ZM277 729C276.01 731.97 275.02 734.94 274 738C277.747 739.398 277.747 739.398 280 738C280 735.36 280 732.72 280 730C279.01 729.67 278.02 729.34 277 729Z" fill="black"/>
<path d="M840 881C843.778 881.654 846.421 883.38 849.625 885.438C854.19 888.334 858.82 891.02 863.583 893.578C872.349 898.298 880.289 903.594 888.19 909.634C891.226 911.925 894.334 914.115 897.438 916.312C898.603 917.144 899.769 917.976 900.934 918.809C902.674 920.053 904.416 921.296 906.16 922.535C916.617 930.15 926.101 938.913 935.155 948.123C938.732 951.758 942.397 955.196 946.277 958.508C952.578 963.965 958.2 970.18 963 977C963 977.66 963 978.32 963 979C963.611 979.257 964.221 979.513 964.85 979.777C967.266 981.151 968.034 982.178 969.402 984.562C969.816 985.273 970.229 985.983 970.655 986.715C971.078 987.469 971.501 988.223 971.938 989C972.376 989.764 972.815 990.527 973.267 991.314C976.382 996.778 979.307 1002.32 982 1008C981.945 1007.41 981.889 1006.82 981.832 1006.22C981.29 1000.43 980.763 994.645 980.253 988.856C980.096 987.082 979.937 985.308 979.775 983.534C979.588 981.461 979.416 979.387 979.25 977.312C979.152 976.154 979.054 974.995 978.953 973.801C979 971 979 971 981 968C981.34 969.258 981.681 970.516 982.031 971.812C984.45 980.464 987.024 988.828 991.063 996.875C991.536 997.826 991.536 997.826 992.02 998.797C996.228 1006.83 1001.35 1012.17 1009.96 1015.43C1014.94 1016.83 1020.18 1017.06 1025.32 1017.33C1026.16 1017.38 1026.99 1017.43 1027.85 1017.48C1028.6 1017.51 1029.35 1017.54 1030.13 1017.57C1032 1018 1032 1018 1034 1021C1033.45 1021.29 1032.91 1021.58 1032.35 1021.88C1016.86 1030.28 1016.86 1030.28 1006.56 1044.19C1003.75 1061.82 1003.75 1061.82 1007 1079C1007.04 1081.33 1007.04 1083.67 1007 1086C1004.2 1082.68 1002.81 1079.3 1001.31 1075.25C1000.88 1074.08 1000.44 1072.91 999.988 1071.7C999.662 1070.81 999.336 1069.92 999 1069C998.709 1070.21 998.417 1071.41 998.117 1072.66C994.188 1088.22 994.188 1088.22 989.43 1093.2C987.722 1095.35 986.885 1097.66 985.853 1100.18C982.235 1107.89 974.892 1114.64 968.008 1119.4C965.866 1120.98 965.866 1120.98 964.148 1123.4C961.629 1126.45 958.748 1128.5 955.5 1130.69C950.696 1134.01 946.138 1137.46 941.688 1141.25C929.96 1151.15 915.716 1160.76 900.32 1163.27C897.413 1163.91 895.076 1164.76 892.336 1165.88C884.018 1168.98 875.246 1169.89 866.5 1171.12C863.911 1171.5 861.323 1171.88 858.735 1172.26C857.068 1172.51 855.401 1172.75 853.734 1172.99C849.479 1173.61 845.246 1174.29 841.02 1175.09C809.79 1180.97 777.672 1181.38 746 1181C744.634 1178.27 744.872 1176.02 745 1173C746 1172 746 1172 747.941 1171.95C748.806 1171.98 749.671 1172.01 750.563 1172.04C767.263 1172.44 783.49 1171.21 800.084 1169.42C800.945 1169.33 801.807 1169.24 802.694 1169.14C804.307 1168.97 805.92 1168.79 807.532 1168.61C811.134 1168.22 814.66 1167.96 818.285 1167.98C821.072 1167.99 823.517 1167.91 826.242 1167.45C827.356 1167.27 827.356 1167.27 828.493 1167.09C829.279 1166.95 830.065 1166.82 830.875 1166.69C837.828 1165.57 844.774 1164.66 851.776 1163.92C870.034 1161.97 886.729 1158.2 904 1152C904.633 1151.79 905.266 1151.57 905.918 1151.35C911.894 1149.26 917.336 1146.3 922.875 1143.25C923.804 1142.75 924.734 1142.25 925.691 1141.73C932.111 1138.22 938.088 1134.3 944 1130C944.714 1129.49 945.428 1128.98 946.164 1128.45C954.724 1122.28 962.289 1115.13 969 1107C969.539 1106.37 970.078 1105.74 970.633 1105.09C975.672 1098.96 979.002 1092.43 982.313 1085.25C982.837 1084.14 983.361 1083.03 983.9 1081.89C988.905 1071.24 992.142 1061.95 991 1050C989.658 1046.65 988.137 1044.77 985 1043C980.536 1041.19 976.481 1040.64 971.688 1040.38C969.719 1040.26 969.719 1040.26 967.711 1040.14C964.731 1040.03 961.793 1040 958.813 1040.06C955.206 1040 953.988 1039.69 951 1038C951.549 1037.78 952.099 1037.57 952.665 1037.34C955.178 1036.35 957.683 1035.33 960.188 1034.31C961.052 1033.97 961.916 1033.63 962.807 1033.28C968.841 1030.81 972.834 1028.29 976.496 1022.73C977.284 1018.47 975.701 1015.29 974.063 1011.38C973.579 1010.18 973.579 1010.18 973.085 1008.96C969.201 999.644 963.941 989.539 955.75 983.312C954.389 982.168 954.389 982.168 953 981C953 980.34 953 979.68 953 979C952.404 978.73 951.807 978.461 951.192 978.183C949.002 977.001 947.639 975.853 945.922 974.07C945.347 973.479 944.772 972.887 944.18 972.278C943.566 971.638 942.952 970.999 942.32 970.34C940.985 968.974 939.649 967.609 938.313 966.244C936.23 964.106 934.151 961.964 932.081 959.814C924.209 951.652 916.638 944.483 906.844 938.695C903.866 936.92 901.421 934.948 898.859 932.641C889.458 924.346 879.104 917.796 868.357 911.409C865.198 909.521 862.065 907.594 858.93 905.667C851.347 901.005 843.719 896.435 836 892C836.33 890.68 836.66 889.36 837 888C838.32 888 839.64 888 841 888C840.01 887.34 839.02 886.68 838 886C838.66 884.35 839.32 882.7 840 881ZM990 1009C987.452 1012.63 985.957 1016.48 984.438 1020.62C983.161 1024.1 982.058 1026.91 980 1030C979.01 1030.33 978.02 1030.66 977 1031C977.638 1033 977.638 1033 979 1035C981.396 1036.06 981.396 1036.06 984.188 1036.75C989.618 1038.51 992.23 1040.82 995.563 1045.39C996.037 1045.92 996.511 1046.45 997 1047C997.99 1047 998.98 1047 1000 1047C1000.22 1046.21 1000.44 1045.43 1000.66 1044.62C1003.5 1035.23 1007.1 1029.81 1015 1024C1012.2 1021.91 1012.2 1021.91 1009.38 1021.25C1005.46 1019.8 1002.45 1017.74 999.051 1015.34C996.946 1013.84 996.946 1013.84 994 1013C992.813 1010.94 992.813 1010.94 992 1009C991.34 1009 990.68 1009 990 1009Z" fill="black"/>
<path d="M370 1410C371.562 1411.25 371.562 1411.25 373 1413C373.062 1414.94 373.062 1414.94 372 1417C366.607 1420.96 360.657 1424.02 354.812 1427.25C341.814 1434.15 341.814 1434.15 330.609 1443.52C328.35 1445.6 325.745 1446.65 323 1448C316.941 1452.02 311.238 1456.46 305.855 1461.34C304.599 1462.47 303.308 1463.55 301.988 1464.59C301.353 1465.1 300.717 1465.6 300.062 1466.12C299.496 1466.56 298.931 1467 298.347 1467.45C296.441 1469.64 296.162 1471.1 296 1474C297.111 1477.36 298.532 1480.51 299.969 1483.75C301.134 1487.42 301.073 1489.32 300 1493C298.73 1495.23 298.73 1495.23 297.187 1497.19C296.686 1497.84 296.184 1498.49 295.668 1499.17C290.938 1504.36 285.664 1505.48 279 1507C278.257 1507.17 277.515 1507.34 276.75 1507.52C271.476 1508.46 268.552 1507.5 264 1505C262.062 1503.31 262.062 1503.31 261 1502C243.828 1507.42 232.956 1527.11 225.062 1541.94C223.68 1544.61 222.329 1547.3 221 1550C220.569 1550.87 220.139 1551.75 219.695 1552.65C218.719 1554.74 217.839 1556.85 217 1559C216.445 1560.38 216.445 1560.38 215.879 1561.78C211.783 1572.78 211.512 1584 216 1595C218.37 1598.63 221.095 1601.79 224 1605C224.784 1606.05 225.567 1607.1 226.375 1608.19C230.111 1612.19 234.437 1615.01 239 1618C239.673 1618.47 240.346 1618.93 241.039 1619.41C246.366 1622.99 251.927 1625.01 258 1627C258.674 1627.23 259.349 1627.46 260.044 1627.69C279.22 1634.17 297.859 1637.93 318.105 1638.54C319.475 1638.58 320.845 1638.62 322.215 1638.67C325.078 1638.76 327.942 1638.84 330.806 1638.93C334.439 1639.04 338.071 1639.15 341.704 1639.27C344.533 1639.36 347.362 1639.45 350.19 1639.53C352.169 1639.6 354.148 1639.66 356.127 1639.72C364.087 1639.96 372.036 1640.05 380 1640C380.625 1642.31 380.625 1642.31 381 1645C379 1648 379 1648 376.933 1648.51C376.11 1648.57 375.286 1648.63 374.437 1648.69C373.632 1648.75 372.826 1648.82 371.996 1648.89C364.24 1649.18 356.666 1648.81 348.937 1648.12C341.823 1647.51 334.72 1646.96 327.586 1646.63C308.375 1645.71 289.715 1643.25 270.77 1639.98C267.613 1639.43 264.474 1638.94 261.293 1638.55C258.2 1638.03 256.164 1637.35 253.441 1635.86C252.643 1635.43 251.844 1635 251.021 1634.55C250.21 1634.1 249.398 1633.65 248.562 1633.19C246.939 1632.31 245.315 1631.42 243.691 1630.54C242.906 1630.11 242.121 1629.68 241.312 1629.24C239.122 1628.07 236.906 1626.99 234.664 1625.93C231.496 1624.36 229.221 1622.63 226.812 1620C224.595 1617.65 222.548 1615.64 220 1613.62C219.34 1613.09 218.68 1612.55 218 1612C218 1611.34 218 1610.68 218 1610C217.413 1609.94 216.827 1609.88 216.222 1609.81C210.932 1607.88 208.332 1600.55 205.847 1595.8C200.77 1583.54 205.786 1568.85 210 1557C210.272 1556.23 210.544 1555.46 210.824 1554.67C216.992 1537.71 226.606 1524.04 239 1511C243.025 1506.58 246.337 1502.02 249.547 1496.98C251 1495 251 1495 253.812 1493.12C256.529 1490.49 256.283 1489.56 256.437 1485.88C256.751 1478.79 259.85 1473.61 264.457 1468.33C267.555 1465.66 270.983 1464.58 275 1464C277.427 1464.32 279.845 1464.72 282.25 1465.19C285.801 1465.86 285.801 1465.86 289 1466C291.641 1463.98 291.641 1463.98 292.722 1461.95C295.712 1457.39 300.719 1454.3 305 1451C305.647 1450.5 306.294 1450 306.961 1449.48C326.119 1434.78 346.359 1421.74 368 1411C368.66 1410.67 369.32 1410.34 370 1410ZM266 1478C263.665 1482.67 264.484 1488.93 265 1494C267.322 1497.62 268.808 1498.5 272.687 1500.12C279.531 1499.87 286.082 1495.6 291 1491C292.382 1488.24 292.095 1485.95 292.062 1482.88C292.053 1481.78 292.044 1480.68 292.035 1479.55C292.023 1478.71 292.012 1477.87 292 1477C278.058 1470.48 278.058 1470.48 266 1478Z" fill="black"/>
<path d="M923.207 468.601C925.394 470.307 926.397 471.924 927.688 474.375C928.104 475.146 928.52 475.916 928.949 476.711C931.808 482.939 931.558 489.388 930 496C923.411 505.486 905.492 508.541 894.789 510.625C890.449 511.381 886.415 512 882 512C883.65 512.33 885.3 512.66 887 513C887 513.33 887 513.66 887 514C880.07 513.505 880.07 513.505 873 513C873 512.67 873 512.34 873 512C872.068 511.913 871.136 511.827 870.176 511.738C857.979 510.394 846.959 507.959 838 499C840.906 495.753 843.373 494.177 847.445 492.668C848.512 492.265 849.58 491.863 850.679 491.448C851.816 491.032 852.953 490.616 854.125 490.187C856.507 489.299 858.888 488.409 861.27 487.519C863.011 486.873 863.011 486.873 864.788 486.213C867.446 485.209 870.077 484.168 872.699 483.074C885.434 477.786 898.625 474.34 911.942 470.85C914.069 470.259 916.173 469.587 918.256 468.856C921 468 921 468 923.207 468.601Z" fill="#020202"/>
<path d="M412 229C416.202 230.312 420.087 231.993 424 234C423.474 239.229 422.227 243.218 419.938 247.937C419.477 248.896 419.477 248.896 419.007 249.874C418.016 251.922 417.011 253.962 416 256C415.66 256.689 415.319 257.379 414.968 258.089C413.274 261.513 411.565 264.93 409.84 268.34C408.743 270.509 407.675 272.683 406.629 274.879C401.153 286.352 393.53 297.17 382.688 304.125C377.135 305.443 371.678 305.23 366 305C364.306 299.976 365.935 296.425 367.688 291.687C369.826 285.634 371.71 279.624 373.188 273.375C374.962 265.967 377.035 259.32 380.985 252.762C382.009 250.984 382.84 249.18 383.688 247.312C390.177 234.1 396.859 227.4 412 229Z" fill="black"/>
<path d="M428 0C430.639 2.63896 431.295 5.58588 432.375 9.0625C434.247 14.8872 436.311 20.4935 439 26C439.306 26.6445 439.611 27.2891 439.926 27.9531C441.142 30.2706 442.533 32.3953 444 34.5625C444.516 35.3269 445.031 36.0913 445.562 36.8789C446.037 37.5789 446.511 38.2788 447 39C447.66 39.99 448.32 40.98 449 42C453.408 41.5171 455.151 40.219 458.062 36.9375C460.035 34.7148 460.035 34.7148 462 33C463.32 33 464.64 33 466 33C465.584 35.9133 465.085 37.8659 463.5 40.375C461.672 43.5747 461.357 46.3616 461 50C470.432 54.7159 485.23 52.2185 495.125 50.4375C498 50 498 50 500.75 50.0625C503.206 50.2522 503.206 50.2522 505 48C505 49.32 505 50.64 505 52C504.377 52.2565 503.755 52.513 503.113 52.7773C497.925 54.9266 492.751 57.1025 487.598 59.3359C486.185 59.9471 486.185 59.9471 484.743 60.5706C482.839 61.3949 480.937 62.2221 479.036 63.0525C478.156 63.4335 477.275 63.8145 476.367 64.207C475.178 64.7249 475.178 64.7249 473.964 65.2532C472 66 472 66 470 66C470 66.66 470 67.32 470 68C468.039 69.3894 466.038 70.726 464 72C467.88 76.244 472.043 79.1092 477 82C476.505 83.485 476.505 83.485 476 85C474.291 84.7141 472.583 84.421 470.875 84.125C469.924 83.9626 468.972 83.8002 467.992 83.6328C464.892 82.9772 461.996 82.023 459 81C458.922 90.9497 459.165 100.871 459.5 110.812C459.548 112.295 459.597 113.777 459.645 115.26C459.761 118.84 459.88 122.42 460 126C458.68 126 457.36 126 456 126C455.828 125.455 455.657 124.911 455.48 124.35C453.663 118.726 451.536 113.331 449.125 107.938C448.799 107.187 448.473 106.436 448.137 105.662C446.107 101.093 443.808 96.8987 441.046 92.7288C440 91 440 91 439 88C437.582 88.936 436.166 89.8739 434.75 90.8125C433.961 91.3346 433.172 91.8566 432.359 92.3945C429.997 93.9556 429.997 93.9556 427.891 95.6992C426 97 426 97 423 97C423.578 92.2316 425.555 89.0499 428 85C428.33 84.34 428.66 83.68 429 83C420.816 80.2447 413.566 79.6332 405 80C402.945 80.0783 400.891 80.1564 398.836 80.2344C392.89 80.4677 386.945 80.7267 381 81C381 80.34 381 79.68 381 79C381.584 78.7786 382.168 78.5572 382.769 78.3291C385.471 77.3037 388.173 76.2768 390.875 75.25C391.793 74.902 392.711 74.5539 393.656 74.1953C398.283 72.4358 402.903 70.6599 407.508 68.8438C408.301 68.5312 409.094 68.2186 409.911 67.8965C412.421 66.8195 414.687 65.4458 417 64C417.66 64 418.32 64 419 64C419.864 61.2429 419.864 61.2429 420 58C417.569 54.1671 414.247 51.157 411 48C414.65 47.343 417.575 46.9264 421.25 47.5625C424.207 48.3518 424.207 48.3518 427 46C427.426 43.2211 427.656 40.6691 427.75 37.875C427.786 37.0718 427.822 36.2687 427.859 35.4412C428.1 28.7992 427.772 22.277 427.262 15.6562C426.913 10.7881 426.666 5.87577 427 1C427.33 0.67 427.66 0.34 428 0ZM436 36C435.902 36.6523 435.804 37.3045 435.703 37.9766C434.508 44.9598 432.764 49.5574 427.312 54.375C424.635 57.414 424.727 59.0769 424.512 63.0039C423.656 66.3423 421.2 67.8259 418.496 69.7734C418.002 70.1782 417.509 70.583 417 71C417 71.66 417 72.32 417 73C417.831 73.1702 418.663 73.3403 419.52 73.5156C420.606 73.758 421.693 74.0003 422.812 74.25C423.891 74.482 424.97 74.7141 426.082 74.9531C429.35 76.1255 430.326 77.0137 432 80C432.688 82.75 432.688 82.75 433 85C433.846 84.7319 434.691 84.4638 435.562 84.1875C439.751 83.959 441.182 84.864 444.387 87.3867C446.964 89.9641 448.4 92.7364 450 96C451.65 93.0113 452.489 90.2863 453.125 86.9375C453.293 86.0803 453.46 85.223 453.633 84.3398C454.078 81.9008 454.078 81.9008 454 79C454.66 79 455.32 79 456 79C456.66 78.34 457.32 77.68 458 77C460.125 76.375 460.125 76.375 462 76C461.01 76 460.02 76 459 76C458.447 73.9245 458 72.1563 458 70C459.451 68.7465 460.908 67.4983 462.406 66.3008C464.412 64.6637 466.203 62.8613 468 61C468.66 60.34 469.32 59.68 470 59C468.467 57.4666 466.725 57.435 464.625 57C461.992 56.4512 459.558 55.8527 457 55C456.155 51.6218 455.892 49.3253 457 46C456.319 46.165 455.639 46.33 454.938 46.5C451.351 47.1104 448.633 47.51 445 47C442.586 44.9515 440.821 42.5751 439 40C438.001 38.6655 437.002 37.3319 436 36Z" fill="#030303"/>
<path d="M999.312 647.313C1001.83 649.615 1002.94 650.852 1004.25 654.063C1003.41 663.93 990.333 674.051 983.062 680.375C975.085 686.795 965.537 692.707 955 693C950.679 692.51 947.409 691.439 944.328 688.293C941.672 684.511 940.172 680.861 940.523 676.125C943.43 663.165 954.606 651.717 965.254 644.465C977.623 637.087 988.111 638.28 999.312 647.313Z" fill="black"/>
<path d="M794 400C794.66 400 795.32 400 796 400C797.749 403.857 798.443 407.287 798.812 411.5C798.977 413.155 798.977 413.155 799.145 414.844C798.974 418.559 798.349 420.132 796 423C791.93 425.59 787.49 427.26 783 429C781.93 429.419 780.86 429.838 779.758 430.27C761.529 436.227 737.158 435.511 719.84 426.965C718.929 426.487 718.929 426.487 718 426C717.01 425.526 716.02 425.051 715 424.562C712.426 422.552 712.49 421.139 712 418C712.724 417.697 713.449 417.394 714.195 417.082C720.672 414.342 720.672 414.342 726.375 410.312C732.333 405.064 740.417 404.61 748 403.312C748.667 403.197 749.333 403.082 750.02 402.963C760.385 401.207 770.192 400.688 780.68 401.703C784.955 402.098 788.771 401.738 793 401C793.33 400.67 793.66 400.34 794 400Z" fill="black"/>
<path d="M468.424 274.455C469.376 274.498 470.328 274.541 471.309 274.586C472.382 274.632 473.456 274.678 474.562 274.726C480.423 275.193 486.237 275.827 492.062 276.625C493.365 276.803 494.668 276.981 496.01 277.165C516.877 280.11 536.778 285.146 556.625 292.192C558.703 292.899 560.773 293.508 562.895 294.07C565.835 294.951 567.89 295.952 570.438 297.625C578.013 302.358 586.102 306.148 594.136 310.033C597.609 311.731 600.841 313.387 603.875 315.812C606.834 318.133 609.862 320.24 613 322.312C617.404 325.361 620.787 328.785 624.211 332.887C625.967 335.037 625.967 335.037 628.023 336.93C635.018 344.256 636.559 352.838 636.5 362.562C636.41 366.049 636.231 369.521 636 373C635.938 374.14 635.876 375.279 635.812 376.453C634.344 389.887 625.771 404.408 615.562 413.062C614.717 413.702 613.871 414.341 613 415C611.68 414.34 610.36 413.68 609 413C608.707 410.75 608.707 410.75 609 408C611.012 406 611.012 406 613.688 404C619.749 398.882 621.757 393.447 624 386C624.351 384.983 624.701 383.966 625.062 382.918C629.441 369.29 628.132 353.851 622 341C620.426 339.274 620.426 339.274 619 338C619 337.34 619 336.68 619 336C617.68 335.34 616.36 334.68 615 334C615 333.34 615 332.68 615 332C614.434 331.742 613.868 331.484 613.285 331.219C610.759 329.871 608.692 328.266 606.438 326.5C600.592 322.179 594.375 318.892 587.915 315.583C583.708 313.428 579.617 311.229 575.625 308.688C566.056 302.796 554.867 299.919 544.125 296.938C542.398 296.449 542.398 296.449 540.637 295.951C538.289 295.29 535.939 294.636 533.587 293.989C531.178 293.325 528.772 292.647 526.37 291.956C517.01 289.329 507.74 287.702 498.125 286.375C496.699 286.17 495.273 285.964 493.848 285.758C487.966 284.916 482.088 284.103 476.179 283.478C475.394 283.393 474.61 283.308 473.801 283.221C472.289 283.061 470.776 282.909 469.261 282.766C467.499 282.579 465.747 282.299 464 282C463.67 281.34 463.34 280.68 463 280C465.035 275.217 465.035 275.217 468.424 274.455Z" fill="black"/>
<path d="M597 416C598.65 416.33 600.3 416.66 602 417C602.99 419.97 602.99 419.97 604 423C600.747 426.749 597.079 428.637 592.625 430.625C591.086 431.324 589.547 432.023 588.008 432.723C587.192 433.09 586.377 433.458 585.536 433.836C582.96 435.018 580.413 436.251 577.867 437.496C543.226 454.223 498.842 463.245 460.443 465.756C457.864 465.923 457.864 465.923 455 467C451.65 467.227 448.295 467.185 444.938 467.188C444.014 467.2 443.09 467.212 442.139 467.225C441.256 467.227 440.374 467.228 439.465 467.23C438.657 467.235 437.848 467.239 437.015 467.243C435 467 435 467 433 465C433.023 462.617 433.023 462.617 433.375 459.875C433.486 458.965 433.597 458.055 433.711 457.117C433.806 456.419 433.902 455.72 434 455C438.097 454.024 441.954 453.862 446.16 453.824C447.593 453.804 449.027 453.783 450.46 453.761C451.21 453.75 451.959 453.739 452.732 453.727C469.418 453.443 485.547 451.902 502 449C503.341 448.769 504.682 448.537 506.023 448.307C527.283 444.627 548.391 440.955 567.797 431.07C571.986 428.962 576.273 427.179 580.625 425.438C589.95 422.248 589.95 422.248 597 416Z" fill="black"/>
<path d="M814 610C814.99 610.33 815.98 610.66 817 611C818.032 613.753 818.163 616.487 818.281 619.406C818.319 620.233 818.356 621.059 818.395 621.91C818.465 623.637 818.535 625.363 818.605 627.09C818.643 627.916 818.68 628.742 818.719 629.594C818.749 630.343 818.779 631.093 818.811 631.865C819 634.001 819.423 635.938 820 638C820.961 638.077 820.961 638.077 821.941 638.156C828.436 639.008 831.574 640.786 835.723 645.832C839.002 651.398 838.719 658.756 838 665C836.214 669.785 834.271 673.152 830 676C830.332 677.056 830.332 677.056 830.671 678.133C834.488 690.302 838.263 702.423 841.188 714.84C841.892 717.578 842.737 720.08 843.813 722.688C845.03 726.084 845.158 727.631 844 731C840.528 727.847 839.34 724.146 837.813 719.812C837.516 718.993 837.22 718.173 836.915 717.328C834.023 709.242 831.324 701.089 828.665 692.923C828.346 691.949 828.028 690.976 827.699 689.973C827.279 688.677 827.279 688.677 826.85 687.356C826.037 685.104 825.236 683.052 824 681C821.374 679.866 821.374 679.866 818.375 679.25C817.372 679.008 816.369 678.765 815.336 678.516C814.565 678.345 813.794 678.175 813 678C813 677.34 813 676.68 813 676C812.278 675.773 811.556 675.546 810.813 675.312C806.676 673.382 804.031 670.718 801.688 666.812C799.837 659.242 800.611 653.059 804.355 646.207C806.941 642.737 810.129 640.825 814 639C813.838 637.895 813.675 636.791 813.508 635.652C812.88 630.618 812.853 625.63 812.875 620.562C812.871 619.653 812.867 618.744 812.863 617.807C812.865 616.944 812.866 616.081 812.867 615.191C812.868 614.41 812.869 613.628 812.871 612.823C813 611 813 611 814 610Z" fill="black"/>
<path d="M350 269C350 269.33 350 269.66 350 270C350.949 270.083 351.898 270.165 352.875 270.25C357.89 270.94 362.385 273.003 367 275C367 276.32 367 277.64 367 279C366 280 366 280 362.965 280.049C361.622 280.027 360.28 280.003 358.938 279.977C350.552 279.896 342.344 280.52 334 281.375C332.579 281.517 331.158 281.658 329.736 281.8C327.002 282.073 324.268 282.353 321.535 282.637C318.764 282.922 315.993 283.186 313.219 283.434C296.909 285.095 280.744 289.198 265.926 296.215C261.518 298.285 256.962 299.876 252.375 301.5C236.981 307.064 223.646 315.082 210 324C209.188 324.523 208.377 325.045 207.541 325.584C206.746 326.101 205.952 326.619 205.133 327.152C204.419 327.615 203.705 328.078 202.969 328.554C197.531 332.546 192.501 339.034 190.125 345.313C189 347 189 347 185.875 347.75C184.926 347.833 183.978 347.915 183 348C181.903 344.71 182.2 343.287 183 340C183.66 340 184.32 340 185 340C185.268 339.428 185.536 338.855 185.813 338.266C191.82 326.804 202.355 319.89 212.945 313.055C215.828 311.182 215.828 311.182 217.71 309.614C223.459 304.977 229.62 302.316 236.438 299.563C237.588 299.087 238.739 298.612 239.925 298.123C242.224 297.174 244.526 296.231 246.829 295.293C249.566 294.177 252.296 293.049 255.023 291.91C272.509 284.618 289.399 278.289 308.188 275.313C310.765 274.896 313.342 274.474 315.918 274.051C317.04 273.872 318.161 273.693 319.317 273.509C321.959 273.134 321.959 273.134 324 272C326.038 271.771 328.08 271.59 330.125 271.438C331.221 271.354 332.316 271.27 333.445 271.184C334.288 271.123 335.131 271.062 336 271C336 270.67 336 270.34 336 270C345.41 268.852 345.41 268.852 350 269Z" fill="#060606"/>
<path d="M194 352C197.25 354.565 200.135 357.271 202 361C202.622 368.986 202.476 374.783 197.242 381.133C195.529 383.124 193.785 385.074 192 387C203.945 406.024 228.847 416.341 248.625 425.375C249.34 425.703 250.054 426.03 250.79 426.367C271.687 436.613 271.687 436.613 294 441C294 441.66 294 442.32 294 443C295.176 442.691 295.176 442.691 296.375 442.375C297.241 442.252 298.108 442.128 299 442C299.66 442.66 300.32 443.32 301 444C302.828 444.55 302.828 444.55 304.914 444.852C305.675 444.981 306.435 445.11 307.219 445.243C308.41 445.432 308.41 445.432 309.625 445.625C310.427 445.76 311.229 445.894 312.055 446.032C314.035 446.362 316.017 446.682 318 447C319.125 451.75 319.125 451.75 318 454C304.091 452.78 291.256 449.362 278.151 444.748C275.961 443.987 273.762 443.263 271.559 442.543C251.58 435.903 223.139 426.135 208.504 410.391C207.108 408.858 207.108 408.858 205.184 408.637C201.779 407.644 199.581 405.199 197.062 402.813C196.55 402.343 196.038 401.873 195.51 401.389C192.028 398.146 188.9 394.777 186 391C186 390.34 186 389.68 186 389C185.074 389.053 185.074 389.053 184.129 389.106C177.283 389.325 170.576 389.101 165.176 384.418C162.312 381.236 160.255 378.142 159 374C158.34 374.66 157.68 375.32 157 376C157 372.37 157 368.74 157 365C157.66 364.67 158.32 364.34 159 364C159.724 362.015 159.724 362.015 160.312 359.688C161.696 355.366 162.958 353.336 167 351C176.395 346.363 184.777 347.272 194 352ZM167 356C163.152 361.387 163.297 367.54 164 374C165.733 379.297 168.195 381.312 173 384C178.572 384.864 184.831 385.239 190.168 383.153C194.594 379.796 197.274 374.279 198.453 368.954C198.801 364.871 197.883 362.309 195.438 359.188C187.364 350.868 176.728 350.543 167 356Z" fill="#060606"/>
<path d="M964 739C964.99 739.33 965.98 739.66 967 740C972.06 750.146 971.345 762.534 971.316 773.591C971.312 776.128 971.336 778.663 971.361 781.199C971.435 799.424 966.299 809.165 954.309 822.871C949.351 827.443 944.845 828.557 938.312 828.344C923.294 826.785 909.473 822.028 898 812C898.33 810.68 898.66 809.36 899 808C903 808 903 808 904.336 809.281C904.885 809.848 905.434 810.416 906 811C908.195 812.242 910.363 813.396 912.625 814.5C913.253 814.808 913.881 815.115 914.528 815.432C923.919 819.955 932.725 823.214 943.125 819.938C950.71 816.628 955.677 811.133 959.039 803.664C960.658 799.175 961.438 794.728 962 790C962.111 789.099 962.222 788.198 962.336 787.27C963.683 774.07 963.513 760.855 961.448 747.75C960.696 742.42 960.696 742.42 962.449 739.996C962.961 739.667 963.473 739.339 964 739Z" fill="black"/>
<path d="M859.922 566.43C863.459 568.046 866.822 569.741 870 572C870.669 574.12 870.669 574.12 871 576C870.433 576.22 869.866 576.441 869.282 576.668C856.368 581.722 843.988 587.285 831.849 593.998C830.532 594.712 829.187 595.376 827.827 596.004C825.828 596.868 825.828 596.868 825 599C823.35 598.67 821.7 598.34 820 598C820.609 595.309 821.28 592.662 822 590C822.21 589.144 822.42 588.288 822.637 587.406C825.369 578.129 831.7 571.158 839.977 566.227C846.508 563.577 853.398 563.807 859.922 566.43Z" fill="black"/>
<path d="M885.187 574.625C889.196 575.159 891.353 577.116 894 580C895.099 581.47 896.166 582.965 897.207 584.477C898.126 585.809 898.126 585.809 899.064 587.168C899.703 588.103 900.342 589.037 901 590C901.943 591.373 901.943 591.373 902.904 592.773C911.19 604.897 919.18 617.059 925.992 630.078C926.956 631.916 927.944 633.74 928.937 635.562C931.67 640.724 933.33 644.057 933 650C931.35 649.67 929.7 649.34 928 649C928 648.34 928 647.68 928 647C927.34 647 926.68 647 926 647C925.601 646.124 925.601 646.124 925.193 645.231C918.992 631.279 918.992 631.279 910.836 618.441C908.905 615.874 907.16 613.228 905.41 610.535C898.699 600.231 891.163 590.988 882.555 582.191C881 580 881 580 881.195 577.777C882.307 575.321 882.474 575.09 885.187 574.625Z" fill="black"/>
<path d="M240 1268C241.32 1268.33 242.64 1268.66 244 1269C245.32 1273.62 246.64 1278.24 248 1283C252.62 1283 257.24 1283 262 1283C262 1284.98 262 1286.96 262 1289C258.04 1289.66 254.08 1290.32 250 1291C250.34 1293.85 250.34 1293.85 250.688 1296.75C251.364 1302.41 251.364 1302.41 249.52 1305.39C249.018 1305.92 248.517 1306.45 248 1307C246.125 1306.44 246.125 1306.44 244 1305C242.464 1300.93 241.737 1297.34 242 1293C241.34 1293.33 240.68 1293.66 240 1294C237.963 1294.23 235.92 1294.41 233.875 1294.56C232.779 1294.65 231.684 1294.73 230.555 1294.82C229.712 1294.88 228.869 1294.94 228 1295C227.312 1292.69 227.312 1292.69 227 1290C228.544 1287.59 229.739 1287.08 232.48 1286.27C233.374 1286.12 234.267 1285.97 235.188 1285.81C236.089 1285.65 236.99 1285.5 237.918 1285.33C238.605 1285.22 239.292 1285.11 240 1285C239.844 1284.35 239.688 1283.7 239.527 1283.02C238.422 1278.06 237.585 1274.02 239 1269C239.33 1268.67 239.66 1268.34 240 1268Z" fill="black"/>
<path d="M670 809C681.676 811.378 693 814.31 704.299 818.099C706.654 818.885 709.016 819.644 711.379 820.402C727.123 825.567 727.123 825.567 732 831C733 833.875 733 833.875 733 836C729.451 836 727.391 834.716 724.296 833.109C720.352 831.204 716.212 829.884 712.062 828.5C707.089 826.833 702.222 825.151 697.469 822.922C692.905 820.839 688.34 819.735 683.438 818.75C682.62 818.577 681.802 818.405 680.959 818.227C678.975 817.809 676.988 817.403 675 817C675 816.34 675 815.68 675 815C673.68 814.67 672.36 814.34 671 814C670.67 812.35 670.34 810.7 670 809Z" fill="black"/>
<path d="M262.172 620.687C264.062 621.625 264.062 621.625 267 624C267.684 627.148 267.684 627.148 268 630C267.178 630.026 266.355 630.051 265.508 630.078C255.191 630.602 246.398 632.426 239 640C237.517 642.271 236.285 644.602 235 647C233.702 648.694 232.381 650.372 231 652C230 651 230 651 229.688 648C229.864 639.358 235.475 632.196 241 626C247.306 620.28 253.78 618.031 262.172 620.687Z" fill="black"/>
<path d="M291 173C292.32 173.33 293.64 173.66 295 174C295.66 177.63 296.32 181.26 297 185C298.361 184.67 299.722 184.34 301.125 184C304.825 183.17 308.192 182.805 312 183C312 184.32 312 185.64 312 187C307.666 189.032 303.714 189.521 299 190C299.156 190.915 299.312 191.83 299.473 192.773C299.765 194.556 299.765 194.556 300.062 196.375C300.358 198.15 300.358 198.15 300.66 199.961C301 203 301 203 300 205C298.078 204.352 298.078 204.352 296 203C294.846 199.374 294.528 195.786 294 192C290.04 192.33 286.08 192.66 282 193C281.67 191.68 281.34 190.36 281 189C284.823 187.577 287.913 186.76 292 187C291.844 186.408 291.688 185.817 291.527 185.207C289.594 177.359 289.594 177.359 291 173Z" fill="black"/>
<path d="M166 1153C167.938 1154.5 167.938 1154.5 169 1157C169.189 1159.85 168.944 1162.3 168 1165C165.546 1167.19 164.167 1168 160.875 1168C158.085 1166.51 157.274 1164.87 156 1162C155.562 1158.87 155.562 1158.87 156 1156C158.89 1152.67 161.739 1152.37 166 1153Z" fill="black"/>
<path d="M1084.12 1190.06C1086 1191 1086 1191 1087.25 1192.56C1088.37 1196.2 1088.24 1199.19 1088 1203C1087.01 1204.49 1087.01 1204.49 1086 1206C1084.35 1205.67 1082.7 1205.34 1081 1205C1081 1203.68 1081 1202.36 1081 1201C1080.34 1201 1079.68 1201 1079 1201C1077.59 1198.17 1077.68 1196.13 1078 1193C1080.03 1190.75 1081.07 1189.97 1084.12 1190.06Z" fill="black"/>
<path d="M846 1046C850.455 1046.99 850.455 1046.99 855 1048C854.516 1054.41 854.516 1054.41 852.312 1056.94C849.382 1058.28 847.189 1058.28 844 1058C843 1057 843 1057 842.75 1054.25C843.026 1050.67 843.952 1048.9 846 1046Z" fill="black"/>
<path d="M1053 874C1056.16 875.37 1056.99 875.989 1059 879C1059.12 882.188 1059.12 882.188 1059 885C1055.62 885.625 1055.62 885.625 1052 886C1050 884 1050 884 1049.69 881.125C1050.03 877.736 1050.73 876.461 1053 874Z" fill="black"/>
<path d="M578.625 216.25C581 218 581 218 582 221C581.062 223.688 581.062 223.688 580 226C578.68 226 577.36 226 576 226C576 225.34 576 224.68 576 224C575.01 223.67 574.02 223.34 573 223C573 220.69 573 218.38 573 216C576 215 576 215 578.625 216.25Z" fill="black"/>
<path d="M96 668C98.125 668.938 98.125 668.938 100 670C99.625 671.938 99.625 671.938 99 674C98.01 674.495 98.01 674.495 97 675C94.875 674.062 94.875 674.062 93 673C93.375 671.062 93.375 671.062 94 669C94.66 668.67 95.32 668.34 96 668Z" fill="black"/>
</g>
<defs>
<clipPath id="clip0_376_2">
<rect width="1088.16" height="1738.18" fill="white"/>
</clipPath>
</defs>
</svg>
