<svg width="401" height="401" viewBox="0 0 401 401" fill="none" xmlns="http://www.w3.org/2000/svg">
<path d="M313.165 391.767C298.392 393.382 284.034 396.03 269.645 396.205C223.662 396.765 177.666 396.688 131.68 396.257C114.93 396.1 98.1218 395.333 81.8915 389.807C41.5343 376.066 17.1692 347.962 9.36159 306.609C5.93039 288.436 5.7497 269.497 5.58266 250.892C5.22065 210.571 5.63786 170.24 6.09739 129.917C6.33734 108.861 8.42137 88.0823 17.9599 68.7008C34.3927 35.3106 61.1198 15.0233 97.5555 9.82549C120.85 6.50237 144.702 6.48721 168.319 6.16633C201.473 5.71591 234.646 6.04555 267.8 6.66573C284.731 6.98246 301.769 7.36941 318.22 12.5573C363.67 26.8912 389.993 63.2999 393.898 105.974C396.049 129.482 395.975 153.239 396.006 176.884C396.054 213.707 396.007 250.553 394.78 287.349C393.143 336.405 364.949 377.723 313.165 391.767ZM85.9026 48.7461C62.7658 57.9408 49.5537 75.0959 44.6984 99.3122C40.4088 120.708 40.2349 142.348 40.1758 163.997C40.1245 182.822 41.048 201.662 40.5584 220.47C39.9112 245.33 39.863 270.133 43.1017 294.814C45.0493 309.657 49.3522 323.676 59.198 335.544C72.109 351.107 89.6974 357.113 108.739 359.385C122.601 361.04 136.64 361.73 150.61 361.872C184.266 362.215 217.937 362.477 251.582 361.78C268.992 361.418 286.552 360.086 303.698 357.161C330.319 352.619 348.457 336.801 354.948 310.265C358.438 295.996 360.344 281.059 360.723 266.366C361.639 230.892 361.349 195.383 361.322 159.889C361.307 139.736 360.919 119.61 357.06 99.6783C351.345 70.1642 332.093 50.8324 302.567 45.3923C277.51 40.7756 252.22 40.623 226.879 40.9907C211.22 41.218 195.556 41.2058 179.895 41.2986C163.405 41.3962 146.851 40.6264 130.444 41.844C115.764 42.9335 101.246 46.2125 85.9026 48.7461Z" fill="#FEFEFE"/>
<path d="M120.016 142.529C142.669 112.916 172.409 98.8616 209.183 101.621C235.82 103.62 258.286 115.344 276.01 135.499C294.039 155.999 302.478 180.424 300.682 207.278C298.566 238.907 284.396 265.023 258.081 283.496C198.199 325.533 114.729 290.698 102.29 218.54C97.5329 190.945 104.01 165.757 120.016 142.529ZM138.986 220.913C149.68 255.546 184.823 274.007 219.816 263.373C254.933 252.701 273.238 217.298 262.265 181.276C251.869 147.152 216.651 128.943 181.548 139.544C147.796 149.737 128.645 185.852 138.986 220.913Z" fill="#FDFEFE"/>
<path d="M291.897 115.661C281.196 108.891 279.848 94.1008 285.781 84.3176C291.488 74.9056 304.657 71.1441 315.386 76.0506C324.032 80.0046 328.101 88.0857 328.55 96.4688C328.997 104.787 325.125 112.729 316.88 117.116C308.434 121.61 300.118 122.38 291.897 115.661Z" fill="#FDFDFD"/>
</svg>
