<svg width="464" height="264" viewBox="0 0 464 264" fill="none" xmlns="http://www.w3.org/2000/svg">
<path d="M200.506 238.308C185.181 214.052 187.505 185.761 206.225 163.025C225.738 139.328 247.454 117.772 268.508 95.5696C273.41 90.4005 277.84 84.858 281.348 78.5963C291.749 60.0322 286.617 36.6781 269.588 24.9849C251.66 12.6751 229.254 16.3744 215.871 33.5996C204.588 48.1217 203.425 63.6426 210.735 80.2088C215.239 90.4168 222.112 98.9512 229.164 107.363C231.252 109.854 233.243 112.434 235.195 115.039C235.939 116.033 236.192 117.267 235.284 118.339C234.454 119.32 233.305 119.133 232.511 118.437C216.11 104.07 199.506 89.6456 195.247 66.4155C189.813 36.78 208.733 8.33663 237.889 1.37341C267.491 -5.69659 299.154 15.3438 305.421 45.7742C309.955 67.7892 303.798 86.4919 289.786 102.988C273.49 122.173 255.906 140.125 238.462 158.206C230.35 166.614 222.371 175.133 216.321 185.318C200.934 211.222 217.341 240.748 242.775 245.795C274.226 252.036 297.895 218.143 289.356 191.603C285.126 178.457 277.329 167.83 268.698 157.605C266.503 155.004 264.291 152.412 262.222 149.708C261.357 148.577 260.305 147.087 261.817 145.752C263.017 144.693 264.398 145.384 265.401 146.291C279.878 159.376 294.543 172.25 300.663 192.127C310.569 224.309 286.579 260.96 253.634 263.669C231.373 265.499 213.705 257.136 200.506 238.308Z" fill="black"/>
<path d="M0.28349 115.414C0.287866 110.782 0.320812 106.597 0.285492 102.413C0.267413 100.272 0.579886 98.4964 3.21475 98.3873C5.7581 98.282 7.99869 98.6993 8.47718 101.793C8.74597 103.531 8.77497 105.308 8.98564 108.013C16.3197 101.589 23.8295 97.2095 33.3042 97.4227C43.0768 97.6426 50.6909 101.024 54.7027 110.865C55.2278 110.559 55.6781 110.444 55.8976 110.148C64.9526 97.9718 81.5221 93.801 95.2031 100.298C103.1 104.048 107.55 110.495 107.778 119.269C108.14 133.157 107.812 147.063 107.963 160.959C108.008 165.099 105.582 164.914 102.789 164.991C99.4586 165.083 99.2053 163.328 99.1557 160.464C98.9127 146.445 99.9273 132.385 98.4879 118.414C97.5985 109.782 91.6786 104.538 83.206 103.945C79.1208 103.658 75.0336 103.579 71.0662 105.035C63.1711 107.934 58.7474 114.054 58.6816 122.683C58.5858 135.235 58.5589 147.789 58.6627 160.341C58.6917 163.836 57.3983 165.052 54.0016 165.05C50.6344 165.047 49.3147 163.926 49.3513 160.379C49.4807 147.828 49.4541 135.273 49.3415 122.721C49.2924 117.255 48.4819 111.889 44.1319 108.013C38.197 102.726 31.2217 103.072 24.2134 104.771C19.714 105.862 16.0868 108.731 12.6358 111.806C10.3934 113.803 9.40575 116.1 9.43761 119.237C9.57421 132.685 9.38461 146.137 9.54974 159.584C9.59872 163.573 8.47922 165.25 4.31954 165.076C0.810405 164.93 0.25604 163.204 0.267757 160.246C0.326365 145.452 0.28804 130.657 0.28349 115.414Z" fill="black"/>
<path d="M381.36 161.259C366.105 167.039 351.129 168.531 336.511 160.625C325.927 154.901 320.618 145.551 320.496 133.274C320.274 111.009 333.22 97.7797 355.246 97.4368C364.394 97.2944 372.949 98.7506 380.495 104.543C386.809 109.39 389.656 115.981 390.387 123.723C390.871 128.841 389.946 129.852 384.934 129.861C368.414 129.889 351.894 129.86 335.374 129.852C328.569 129.848 328.306 130.172 329.651 136.95C332.406 150.823 340.977 158.417 354.803 159.345C363.886 159.954 372.577 158.639 380.725 154.283C381.75 153.735 382.853 153.22 383.978 153.008C385.727 152.678 387.182 153.494 388.027 155.045C389.054 156.933 387.425 157.771 386.277 158.552C384.827 159.541 383.211 160.276 381.36 161.259ZM350.783 104.104C337.797 107.279 329.818 115.217 330.441 124.492C330.962 124.6 331.519 124.815 332.077 124.815C347.697 124.811 363.318 124.75 378.939 124.791C382.411 124.8 382.376 122.624 381.786 120.299C380.02 113.335 375.782 108.555 369.274 105.734C363.512 103.236 357.537 103.835 350.783 104.104Z" fill="black"/>
<path d="M397.951 134.245C397.952 123.783 397.95 113.771 397.959 103.758C397.962 101.19 397.678 98.5064 401.451 98.3483C404.752 98.2099 406.312 99.6217 406.478 103.006C406.548 104.434 406.616 105.994 407.571 107.255C408.985 107.604 409.724 106.486 410.611 105.802C419.871 98.6526 430.392 96.3741 441.703 97.7344C455.991 99.4529 463.494 107.681 463.858 122.395C464.171 135.089 463.852 147.799 463.952 160.501C463.98 164.082 462.465 165.089 459.153 165.056C455.901 165.023 454.796 163.771 454.821 160.531C454.92 147.979 454.879 135.425 454.836 122.872C454.796 111.139 448.159 104.458 436.685 103.786C426.783 103.205 418.335 106.422 410.659 112.51C408.291 114.388 407.095 116.484 407.129 119.701C407.268 132.85 407.122 146.002 407.182 159.153C407.198 162.565 407.244 165.193 402.501 165.116C397.699 165.037 397.93 162.188 397.946 158.903C397.985 150.833 397.954 142.763 397.951 134.245Z" fill="black"/>
<path d="M147.092 165.821C140.726 165.928 135.034 164.899 129.855 161.731C123.47 157.824 119.846 151.937 119.676 144.461C119.356 130.432 119.626 116.39 119.501 102.355C119.472 99.056 121.01 98.3147 123.803 98.3138C126.594 98.3129 128.142 99.0407 128.111 102.348C127.993 114.591 128.005 126.837 128.096 139.081C128.174 149.454 132.015 156.112 140.036 158.245C152.673 161.607 164.001 158.473 173.806 149.61C175.673 147.923 175.834 145.811 175.829 143.511C175.801 130.221 175.918 116.93 175.759 103.642C175.715 99.9081 176.677 98.2068 180.647 98.2388C184.638 98.2711 185.083 100.377 185.068 103.658C184.987 122.323 185.037 140.988 185.019 159.654C185.017 162.168 185.439 164.865 181.544 165C177.774 165.13 176.673 163.172 176.663 159.795C176.659 158.486 176.673 157.076 175.226 155.728C167.002 161.688 158.099 166.283 147.092 165.821Z" fill="black"/>
</svg>
