<svg width="600" height="601" viewBox="0 0 600 601" fill="none" xmlns="http://www.w3.org/2000/svg">
<path d="M413 57.1877C414.029 57.1914 414.029 57.1914 415.08 57.1952C448.4 57.3819 476.628 68.7545 500.941 91.7502C502.974 93.6991 502.974 93.6991 506 94.5002C508.16 94.2158 508.16 94.2158 510.516 93.5666C511.425 93.3341 512.335 93.1015 513.273 92.862C514.746 92.4663 514.746 92.4663 516.25 92.0627C517.271 91.7912 518.291 91.5196 519.343 91.2399C541.206 85.2766 561.896 76.9069 582 66.5002C577.81 86.0997 564.481 102.365 551 116.5C549.964 117.616 549.964 117.616 548.906 118.754C543.806 124.094 538.064 128.309 532 132.5C543.635 130.955 554.811 129.16 566 125.5C566.822 125.237 567.644 124.973 568.491 124.701C571.268 123.81 574.041 122.908 576.812 122C577.684 121.716 578.556 121.431 579.455 121.138C584.517 119.447 589.366 117.529 594.194 115.252C596 114.5 596 114.5 598 114.5C591.738 127.954 579.639 140.33 569 150.5C566.576 152.904 564.173 155.319 561.816 157.789C555.924 163.896 549.64 169.106 542.906 174.25C540.06 176.356 540.06 176.356 538 178.5C537.848 181.21 537.817 183.817 537.875 186.524C537.892 188.192 537.91 189.861 537.927 191.529C537.939 192.403 537.951 193.277 537.964 194.177C538.157 208.72 538.231 223.093 536 237.5C535.847 238.535 535.847 238.535 535.691 239.59C524.714 312.363 492.265 381.733 442 435.5C441.049 436.551 440.099 437.605 439.152 438.66C434.683 443.632 430.205 448.439 425.07 452.742C422.601 454.839 420.247 457.044 417.875 459.25C411.521 465.029 404.854 470.327 398 475.5C397.326 476.009 396.652 476.519 395.957 477.044C344.19 515.881 282.534 538.003 218 542.5C216.858 542.583 215.715 542.667 214.538 542.752C204.566 543.433 194.62 543.78 184.625 543.813C183.837 543.815 183.05 543.818 182.238 543.821C159.467 543.829 136.534 541.497 114.387 536.073C111.672 535.421 108.947 534.826 106.219 534.231C69.7574 526.109 31.4051 511.685 1 489.5C1 489.17 1 488.84 1 488.5C2.01498 488.511 3.02995 488.521 4.07568 488.532C66.676 489.118 125.901 479.247 177 440.5C177.782 439.914 178.565 439.327 179.371 438.723C179.909 438.319 180.446 437.916 181 437.5C180.129 437.451 179.257 437.402 178.359 437.352C146.261 435.337 120.29 423.713 97 401.5C96.188 400.731 96.188 400.731 95.3596 399.946C91.0981 395.815 87.4734 391.478 84.0625 386.625C83.5496 385.896 83.0367 385.167 82.5083 384.416C75.7255 374.499 70.8095 364.163 68 352.5C69.1896 352.511 70.3793 352.521 71.605 352.532C76.0592 352.568 80.5134 352.591 84.9678 352.61C86.888 352.62 88.8083 352.634 90.7285 352.651C93.5039 352.676 96.2792 352.687 99.0547 352.695C99.8999 352.706 100.745 352.716 101.616 352.727C107.616 352.728 113.163 351.868 119 350.5C117.845 350.129 116.69 349.758 115.5 349.375C113.665 348.756 111.832 348.13 110 347.5C108.79 347.086 107.579 346.673 106.332 346.246C76.6383 335.795 50.7352 314.004 36.9531 285.406C33.4057 277.648 30.4346 269.677 28 261.5C27.679 260.446 27.679 260.446 27.3516 259.371C24.5521 249.33 24.8642 238.832 25 228.5C29.0186 229.79 32.879 231.259 36.75 232.938C42.095 235.185 47.4182 236.956 53 238.5C53.8611 238.768 54.7222 239.036 55.6094 239.313C62.7118 241.448 69.6045 242.159 77 242.5C76.4405 242.085 75.8811 241.67 75.3047 241.242C49.5053 221.416 33.2108 195.523 27 163.5C26.8301 162.859 26.6602 162.218 26.4851 161.558C24.7066 154.66 24.6552 147.908 24.6875 140.813C24.6938 138.94 24.6938 138.94 24.7002 137.029C24.8061 128.405 25.5099 120.782 28 112.5C28.2552 111.421 28.5105 110.342 28.7734 109.231C31.4041 98.6716 36.1438 89.1907 41 79.5002C44.7821 80.7608 45.698 82.3685 48.125 85.5002C51.7976 90.1088 55.6579 94.2751 59.8789 98.3791C61.8862 100.386 63.7292 102.459 65.5625 104.625C68.3922 107.914 71.4103 110.732 74.7188 113.531C76.9248 115.435 79.054 117.407 81.1785 119.402C87.7846 125.579 94.7231 131.137 102 136.5C102.538 136.901 103.076 137.301 103.631 137.714C138.881 163.856 179.453 184.423 222 195.5C223.061 195.78 224.122 196.059 225.215 196.347C247.897 202.196 270.744 205.027 294 207.5C293.841 206.505 293.681 205.51 293.517 204.485C292.962 200.578 292.789 196.692 292.727 192.75C292.714 192.023 292.702 191.296 292.689 190.546C292.389 168.849 293.801 148.528 303 128.5C303.44 127.514 303.879 126.528 304.332 125.512C310.025 113.42 317.791 103.13 327 93.5002C327.661 92.7641 328.323 92.0281 329.004 91.2697C335.732 84.0566 343.698 78.7293 352 73.5002C352.611 73.1141 353.222 72.728 353.852 72.3302C364.493 65.7683 375.902 62.3986 388 59.5002C388.77 59.3037 389.54 59.1072 390.333 58.9047C397.841 57.1623 405.325 57.1434 413 57.1877Z" fill="white"/>
</svg>
