<svg width="601" height="601" viewBox="0 0 601 601" fill="none" xmlns="http://www.w3.org/2000/svg">
<path d="M264 207.331C286.449 207.331 308.397 207.331 330.728 207.331C330.728 224.458 330.728 241.061 330.728 258.833C332.004 257.31 332.67 256.729 333.074 256.002C348.55 228.165 372.87 211.562 402.763 203.192C439.506 192.905 475.718 196.769 510.789 211.044C534.78 220.81 551.175 238.318 561.194 262.271C572.394 289.044 578.585 316.972 578.826 345.761C579.473 422.751 579.13 499.748 579.172 576.743C579.172 577.232 579.041 577.721 578.915 578.604C540.722 578.604 502.521 578.604 463.783 578.604C463.783 576.948 463.783 575.331 463.783 573.714C463.783 515.717 463.508 457.717 463.93 399.722C464.081 378.967 463.236 358.552 457.907 338.342C452.38 317.38 439.173 305.149 418.199 301.209C396.319 297.099 375.703 299.821 357.942 314.449C348.688 322.071 344.756 333.023 341.086 343.936C335.881 359.409 334.287 375.443 334.294 391.673C334.32 452.67 334.375 513.667 334.406 574.664C334.407 575.96 334.241 577.257 334.138 578.77C295.759 578.77 257.649 578.77 219.234 578.77C219.234 455.07 219.234 331.508 219.234 207.331C233.979 207.331 248.739 207.331 264 207.331Z" fill="white"/>
<path d="M31.1416 515.5C31.1416 412.693 31.1416 310.386 31.1416 207.704C69.6576 207.704 107.895 207.704 146.508 207.704C146.508 331.117 146.508 454.683 146.508 578.629C108.271 578.629 69.8931 578.629 31.1416 578.629C31.1416 557.605 31.1416 536.802 31.1416 515.5Z" fill="#FEFEFE"/>
<path d="M73.9085 24.3425C114.109 14.6328 152.732 42.5368 156.187 83.3127C159.401 121.247 130.855 152.047 96.7197 155.743C63.7947 159.308 33.4649 137.246 25.3309 107.273C16.3944 74.3416 31.9739 40.9933 62.5901 27.9019C66.084 26.4079 69.8559 25.5639 73.9085 24.3425Z" fill="#FEFEFE"/>
</svg>
